<svg xmlns="http://www.w3.org/2000/svg" xmlns:xlink="http://www.w3.org/1999/xlink" width="154" zoomAndPan="magnify" viewBox="0 0 115.5 42.75" height="57" preserveAspectRatio="xMidYMid meet" version="1.0"><defs><g/><clipPath id="62d6daaf89"><path d="M 42.4375 15.929688 L 54 15.929688 L 54 21 L 42.4375 21 Z M 42.4375 15.929688 " clip-rule="nonzero"/></clipPath><clipPath id="717272f922"><path d="M 44 17 L 50 17 L 50 26.371094 L 44 26.371094 Z M 44 17 " clip-rule="nonzero"/></clipPath><clipPath id="890de562a9"><path d="M 45 18 L 57.347656 18 L 57.347656 26.371094 L 45 26.371094 Z M 45 18 " clip-rule="nonzero"/></clipPath><clipPath id="088b3e90c0"><path d="M 0.625 1 L 4 1 L 4 3.859375 L 0.625 3.859375 Z M 0.625 1 " clip-rule="nonzero"/></clipPath><clipPath id="8f3d543f6d"><path d="M 3 1 L 5 1 L 5 3.859375 L 3 3.859375 Z M 3 1 " clip-rule="nonzero"/></clipPath><clipPath id="12b64514ab"><path d="M 5 1 L 7 1 L 7 3.859375 L 5 3.859375 Z M 5 1 " clip-rule="nonzero"/></clipPath><clipPath id="af14bc4084"><path d="M 7 1 L 9 1 L 9 3.859375 L 7 3.859375 Z M 7 1 " clip-rule="nonzero"/></clipPath><clipPath id="d626bd743f"><path d="M 8 1 L 12 1 L 12 3.859375 L 8 3.859375 Z M 8 1 " clip-rule="nonzero"/></clipPath><clipPath id="1593a8d9ac"><path d="M 11 1 L 14 1 L 14 3.859375 L 11 3.859375 Z M 11 1 " clip-rule="nonzero"/></clipPath><clipPath id="38e938bdf0"><path d="M 13 2 L 14.464844 2 L 14.464844 3.859375 L 13 3.859375 Z M 13 2 " clip-rule="nonzero"/></clipPath><clipPath id="d2ed9d5fb7"><rect x="0" width="15" y="0" height="4"/></clipPath><clipPath id="7a90a8757a"><path d="M 1 1 L 2 1 L 2 2.53125 L 1 2.53125 Z M 1 1 " clip-rule="nonzero"/></clipPath><clipPath id="9e95691a7e"><path d="M 2 1 L 4 1 L 4 2.53125 L 2 2.53125 Z M 2 1 " clip-rule="nonzero"/></clipPath><clipPath id="b31f4ae069"><path d="M 3 1 L 5 1 L 5 2.53125 L 3 2.53125 Z M 3 1 " clip-rule="nonzero"/></clipPath><clipPath id="c546c7aa06"><path d="M 4 1 L 5 1 L 5 2.53125 L 4 2.53125 Z M 4 1 " clip-rule="nonzero"/></clipPath><clipPath id="81e3c40105"><path d="M 4 1 L 6 1 L 6 2.53125 L 4 2.53125 Z M 4 1 " clip-rule="nonzero"/></clipPath><clipPath id="5e647a6d65"><path d="M 5 1 L 7 1 L 7 2.53125 L 5 2.53125 Z M 5 1 " clip-rule="nonzero"/></clipPath><clipPath id="ea9fd310d8"><path d="M 6 1 L 8 1 L 8 2.53125 L 6 2.53125 Z M 6 1 " clip-rule="nonzero"/></clipPath><clipPath id="3b376edf31"><path d="M 7 1 L 9 1 L 9 2.53125 L 7 2.53125 Z M 7 1 " clip-rule="nonzero"/></clipPath><clipPath id="dc54d1f145"><path d="M 8 1 L 10 1 L 10 2.53125 L 8 2.53125 Z M 8 1 " clip-rule="nonzero"/></clipPath><clipPath id="5f367108dd"><path d="M 9 1 L 11 1 L 11 2.53125 L 9 2.53125 Z M 9 1 " clip-rule="nonzero"/></clipPath><clipPath id="bd5915c919"><path d="M 10 1 L 12 1 L 12 2.53125 L 10 2.53125 Z M 10 1 " clip-rule="nonzero"/></clipPath><clipPath id="8f5a6476b0"><path d="M 11 1 L 12.554688 1 L 12.554688 2.53125 L 11 2.53125 Z M 11 1 " clip-rule="nonzero"/></clipPath><clipPath id="785c59f741"><path d="M 12 2 L 12.554688 2 L 12.554688 2.53125 L 12 2.53125 Z M 12 2 " clip-rule="nonzero"/></clipPath><clipPath id="a5eeec7b3e"><rect x="0" width="13" y="0" height="3"/></clipPath><clipPath id="0e710a2be2"><path d="M 0.078125 1 L 2 1 L 2 2.53125 L 0.078125 2.53125 Z M 0.078125 1 " clip-rule="nonzero"/></clipPath><clipPath id="7f14c03a48"><path d="M 1 1 L 3 1 L 3 2.53125 L 1 2.53125 Z M 1 1 " clip-rule="nonzero"/></clipPath><clipPath id="89ac3ecd91"><path d="M 2 1 L 4 1 L 4 2.53125 L 2 2.53125 Z M 2 1 " clip-rule="nonzero"/></clipPath><clipPath id="09cfe90c71"><path d="M 3 1 L 5 1 L 5 2.53125 L 3 2.53125 Z M 3 1 " clip-rule="nonzero"/></clipPath><clipPath id="ef4d038309"><path d="M 4 1 L 6 1 L 6 2.53125 L 4 2.53125 Z M 4 1 " clip-rule="nonzero"/></clipPath><clipPath id="5a333d9266"><path d="M 5 1 L 7 1 L 7 2.53125 L 5 2.53125 Z M 5 1 " clip-rule="nonzero"/></clipPath><clipPath id="728c2064b5"><path d="M 6 1 L 8 1 L 8 2.53125 L 6 2.53125 Z M 6 1 " clip-rule="nonzero"/></clipPath><clipPath id="b72e91e04a"><path d="M 7 1 L 8 1 L 8 2.53125 L 7 2.53125 Z M 7 1 " clip-rule="nonzero"/></clipPath><clipPath id="c0822a5424"><rect x="0" width="9" y="0" height="3"/></clipPath></defs><g clip-path="url(#62d6daaf89)"><path fill="#c3921c" d="M 48.667969 15.929688 L 42.4375 19.523438 L 42.4375 20.820312 L 48.667969 17.230469 L 53.023438 19.746094 L 53.023438 18.445312 L 48.667969 15.929688 " fill-opacity="1" fill-rule="nonzero"/></g><g clip-path="url(#717272f922)"><path fill="#ffffff" d="M 48.667969 17.632812 L 44.3125 20.148438 L 44.3125 26.570312 L 45.03125 26.570312 L 45.03125 20.148438 L 49.027344 17.839844 L 48.667969 17.632812 " fill-opacity="1" fill-rule="nonzero"/></g><g clip-path="url(#890de562a9)"><path fill="#ffffff" d="M 48.082031 22.1875 C 48.082031 21.789062 48.40625 21.464844 48.804688 21.464844 C 49.203125 21.464844 49.527344 21.789062 49.527344 22.1875 L 49.527344 26.121094 L 48.082031 26.039062 Z M 50.023438 26.148438 L 50.023438 22.1875 C 50.023438 21.511719 49.476562 20.96875 48.804688 20.96875 C 48.132812 20.96875 47.585938 21.511719 47.585938 22.1875 L 47.585938 26.011719 L 46.144531 25.929688 L 46.144531 20.425781 L 49.699219 18.375 L 49.378906 18.191406 L 45.507812 20.425781 L 45.507812 26.570312 L 57.5 26.570312 L 50.023438 26.148438 " fill-opacity="1" fill-rule="nonzero"/></g><g transform="matrix(1, 0, 0, 1, 51, 20)"><g clip-path="url(#d2ed9d5fb7)"><g clip-path="url(#088b3e90c0)"><g fill="#ffffff" fill-opacity="1"><g transform="translate(0.718062, 3.190588)"><g><path d="M 1.53125 -1.953125 L 2.296875 -1.953125 L 1.609375 -1.140625 L 2.3125 0 L 1.578125 0 L 1.171875 -0.71875 L 0.828125 -0.4375 L 0.828125 0 L 0.203125 0 L 0.203125 -1.953125 L 0.828125 -1.953125 L 0.828125 -1.109375 Z M 1.53125 -1.953125 "/></g></g></g></g><g clip-path="url(#8f3d543f6d)"><g fill="#ffffff" fill-opacity="1"><g transform="translate(3.077935, 3.190588)"><g><path d="M 0.203125 -1.953125 L 1.890625 -1.953125 L 1.890625 -1.484375 L 0.828125 -1.484375 L 0.828125 -1.203125 L 1.734375 -1.203125 L 1.734375 -0.765625 L 0.828125 -0.765625 L 0.828125 -0.46875 L 1.90625 -0.46875 L 1.90625 0 L 0.203125 0 Z M 0.203125 -1.953125 "/></g></g></g></g><g clip-path="url(#12b64514ab)"><g fill="#ffffff" fill-opacity="1"><g transform="translate(5.123348, 3.190588)"><g><path d="M 0.203125 -1.953125 L 0.828125 -1.953125 L 0.828125 -0.5 L 1.828125 -0.5 L 1.828125 0 L 0.203125 0 Z M 0.203125 -1.953125 "/></g></g></g></g><g clip-path="url(#af14bc4084)"><g fill="#ffffff" fill-opacity="1"><g transform="translate(7.012946, 3.190588)"><g><path d="M 0.203125 -1.953125 L 0.828125 -1.953125 L 0.828125 -0.5 L 1.828125 -0.5 L 1.828125 0 L 0.203125 0 Z M 0.203125 -1.953125 "/></g></g></g></g><g clip-path="url(#d626bd743f)"><g fill="#ffffff" fill-opacity="1"><g transform="translate(8.902545, 3.190588)"><g><path d="M 1.421875 0 L 0.796875 0 L 0.796875 -0.75 L 0.015625 -1.953125 L 0.734375 -1.953125 L 1.109375 -1.296875 L 1.125 -1.296875 L 1.5 -1.953125 L 2.171875 -1.953125 L 1.421875 -0.75 Z M 1.421875 0 "/></g></g></g></g><g clip-path="url(#1593a8d9ac)"><g fill="#ffffff" fill-opacity="1"><g transform="translate(11.106605, 3.190588)"><g><path d="M 1.5 -1.953125 C 1.601562 -1.953125 1.691406 -1.929688 1.765625 -1.890625 C 1.847656 -1.847656 1.914062 -1.789062 1.96875 -1.71875 C 2.019531 -1.644531 2.046875 -1.5625 2.046875 -1.46875 C 2.046875 -1.226562 1.9375 -1.078125 1.71875 -1.015625 L 1.71875 -1 C 1.96875 -0.945312 2.09375 -0.785156 2.09375 -0.515625 C 2.09375 -0.410156 2.066406 -0.316406 2.015625 -0.234375 C 1.960938 -0.160156 1.890625 -0.101562 1.796875 -0.0625 C 1.710938 -0.0195312 1.617188 0 1.515625 0 L 0.203125 0 L 0.203125 -1.953125 Z M 0.828125 -1.1875 L 1.265625 -1.1875 C 1.304688 -1.1875 1.335938 -1.203125 1.359375 -1.234375 C 1.390625 -1.265625 1.40625 -1.300781 1.40625 -1.34375 L 1.40625 -1.375 C 1.40625 -1.414062 1.390625 -1.445312 1.359375 -1.46875 C 1.335938 -1.5 1.304688 -1.515625 1.265625 -1.515625 L 0.828125 -1.515625 Z M 0.828125 -0.453125 L 1.3125 -0.453125 C 1.351562 -0.453125 1.382812 -0.46875 1.40625 -0.5 C 1.4375 -0.53125 1.453125 -0.566406 1.453125 -0.609375 L 1.453125 -0.640625 C 1.453125 -0.679688 1.4375 -0.710938 1.40625 -0.734375 C 1.382812 -0.765625 1.351562 -0.78125 1.3125 -0.78125 L 0.828125 -0.78125 Z M 0.828125 -0.453125 "/></g></g></g></g><g clip-path="url(#38e938bdf0)"><g fill="#ffffff" fill-opacity="1"><g transform="translate(13.310664, 3.190588)"><g><path d="M 0.171875 0 L 0.171875 -0.5625 L 0.765625 -0.5625 L 0.765625 0 Z M 0.171875 0 "/></g></g></g></g></g></g><g transform="matrix(1, 0, 0, 1, 51, 23)"><g clip-path="url(#a5eeec7b3e)"><g clip-path="url(#7a90a8757a)"><g fill="#ffffff" fill-opacity="1"><g transform="translate(0.84199, 2.066314)"><g><path d="M 1.140625 -0.953125 L 1.140625 0 L 1.046875 0 L 1.046875 -0.765625 L 0.671875 -0.125 L 0.625 -0.125 L 0.25 -0.75 L 0.25 0 L 0.15625 0 L 0.15625 -0.953125 L 0.234375 -0.953125 L 0.65625 -0.25 L 1.0625 -0.953125 Z M 1.140625 -0.953125 "/></g></g></g></g><g clip-path="url(#9e95691a7e)"><g fill="#ffffff" fill-opacity="1"><g transform="translate(2.140837, 2.066314)"><g><path d="M 0.53125 0.015625 C 0.414062 0.015625 0.320312 -0.0195312 0.25 -0.09375 C 0.175781 -0.164062 0.140625 -0.269531 0.140625 -0.40625 L 0.140625 -0.953125 L 0.25 -0.953125 L 0.25 -0.40625 C 0.25 -0.300781 0.269531 -0.21875 0.3125 -0.15625 C 0.363281 -0.101562 0.4375 -0.078125 0.53125 -0.078125 C 0.632812 -0.078125 0.707031 -0.101562 0.75 -0.15625 C 0.800781 -0.21875 0.828125 -0.300781 0.828125 -0.40625 L 0.828125 -0.953125 L 0.921875 -0.953125 L 0.921875 -0.40625 C 0.921875 -0.269531 0.882812 -0.164062 0.8125 -0.09375 C 0.75 -0.0195312 0.65625 0.015625 0.53125 0.015625 Z M 0.53125 0.015625 "/></g></g></g></g><g clip-path="url(#b31f4ae069)"><g fill="#ffffff" fill-opacity="1"><g transform="translate(3.217996, 2.066314)"><g><path d="M 0.15625 -0.953125 L 0.25 -0.953125 L 0.25 -0.09375 L 0.78125 -0.09375 L 0.78125 0 L 0.15625 0 Z M 0.15625 -0.953125 "/></g></g></g></g><g clip-path="url(#c546c7aa06)"><g fill="#ffffff" fill-opacity="1"><g transform="translate(4.019066, 2.066314)"><g><path d="M 0.34375 -0.859375 L 0 -0.859375 L 0 -0.953125 L 0.78125 -0.953125 L 0.78125 -0.859375 L 0.4375 -0.859375 L 0.4375 0 L 0.34375 0 Z M 0.34375 -0.859375 "/></g></g></g></g><g clip-path="url(#81e3c40105)"><g fill="#ffffff" fill-opacity="1"><g transform="translate(4.799734, 2.066314)"><g><path d="M 0.15625 -0.953125 L 0.25 -0.953125 L 0.25 0 L 0.15625 0 Z M 0.15625 -0.953125 "/></g></g></g></g><g clip-path="url(#5e647a6d65)"><g fill="#ffffff" fill-opacity="1"><g transform="translate(5.21047, 2.066314)"><g><path d="M 0.515625 -0.953125 C 0.628906 -0.953125 0.722656 -0.921875 0.796875 -0.859375 C 0.867188 -0.804688 0.90625 -0.726562 0.90625 -0.625 C 0.90625 -0.519531 0.867188 -0.4375 0.796875 -0.375 C 0.722656 -0.320312 0.628906 -0.296875 0.515625 -0.296875 L 0.25 -0.296875 L 0.25 0 L 0.15625 0 L 0.15625 -0.953125 Z M 0.515625 -0.390625 C 0.609375 -0.390625 0.675781 -0.410156 0.71875 -0.453125 C 0.769531 -0.492188 0.796875 -0.550781 0.796875 -0.625 C 0.796875 -0.695312 0.769531 -0.753906 0.71875 -0.796875 C 0.675781 -0.835938 0.609375 -0.859375 0.515625 -0.859375 L 0.25 -0.859375 L 0.25 -0.390625 Z M 0.515625 -0.390625 "/></g></g></g></g><g clip-path="url(#ea9fd310d8)"><g fill="#ffffff" fill-opacity="1"><g transform="translate(6.186985, 2.066314)"><g><path d="M 0.53125 0.015625 C 0.414062 0.015625 0.320312 -0.0195312 0.25 -0.09375 C 0.175781 -0.164062 0.140625 -0.269531 0.140625 -0.40625 L 0.140625 -0.953125 L 0.25 -0.953125 L 0.25 -0.40625 C 0.25 -0.300781 0.269531 -0.21875 0.3125 -0.15625 C 0.363281 -0.101562 0.4375 -0.078125 0.53125 -0.078125 C 0.632812 -0.078125 0.707031 -0.101562 0.75 -0.15625 C 0.800781 -0.21875 0.828125 -0.300781 0.828125 -0.40625 L 0.828125 -0.953125 L 0.921875 -0.953125 L 0.921875 -0.40625 C 0.921875 -0.269531 0.882812 -0.164062 0.8125 -0.09375 C 0.75 -0.0195312 0.65625 0.015625 0.53125 0.015625 Z M 0.53125 0.015625 "/></g></g></g></g><g clip-path="url(#3b376edf31)"><g fill="#ffffff" fill-opacity="1"><g transform="translate(7.264144, 2.066314)"><g><path d="M 0.8125 0 L 0.59375 -0.3125 C 0.5625 -0.300781 0.535156 -0.296875 0.515625 -0.296875 L 0.25 -0.296875 L 0.25 0 L 0.15625 0 L 0.15625 -0.953125 L 0.515625 -0.953125 C 0.628906 -0.953125 0.722656 -0.921875 0.796875 -0.859375 C 0.867188 -0.804688 0.90625 -0.726562 0.90625 -0.625 C 0.90625 -0.550781 0.882812 -0.488281 0.84375 -0.4375 C 0.800781 -0.382812 0.75 -0.347656 0.6875 -0.328125 L 0.921875 0 Z M 0.515625 -0.390625 C 0.609375 -0.390625 0.675781 -0.410156 0.71875 -0.453125 C 0.769531 -0.492188 0.796875 -0.550781 0.796875 -0.625 C 0.796875 -0.695312 0.769531 -0.753906 0.71875 -0.796875 C 0.675781 -0.835938 0.609375 -0.859375 0.515625 -0.859375 L 0.25 -0.859375 L 0.25 -0.390625 Z M 0.515625 -0.390625 "/></g></g></g></g><g clip-path="url(#dc54d1f145)"><g fill="#ffffff" fill-opacity="1"><g transform="translate(8.24746, 2.066314)"><g><path d="M 0.515625 -0.953125 C 0.628906 -0.953125 0.722656 -0.921875 0.796875 -0.859375 C 0.867188 -0.804688 0.90625 -0.726562 0.90625 -0.625 C 0.90625 -0.519531 0.867188 -0.4375 0.796875 -0.375 C 0.722656 -0.320312 0.628906 -0.296875 0.515625 -0.296875 L 0.25 -0.296875 L 0.25 0 L 0.15625 0 L 0.15625 -0.953125 Z M 0.515625 -0.390625 C 0.609375 -0.390625 0.675781 -0.410156 0.71875 -0.453125 C 0.769531 -0.492188 0.796875 -0.550781 0.796875 -0.625 C 0.796875 -0.695312 0.769531 -0.753906 0.71875 -0.796875 C 0.675781 -0.835938 0.609375 -0.859375 0.515625 -0.859375 L 0.25 -0.859375 L 0.25 -0.390625 Z M 0.515625 -0.390625 "/></g></g></g></g><g clip-path="url(#5f367108dd)"><g fill="#ffffff" fill-opacity="1"><g transform="translate(9.223975, 2.066314)"><g><path d="M 0.578125 0.015625 C 0.472656 0.015625 0.382812 -0.00390625 0.3125 -0.046875 C 0.238281 -0.0976562 0.179688 -0.160156 0.140625 -0.234375 C 0.0976562 -0.304688 0.078125 -0.382812 0.078125 -0.46875 C 0.078125 -0.5625 0.0976562 -0.644531 0.140625 -0.71875 C 0.179688 -0.789062 0.238281 -0.847656 0.3125 -0.890625 C 0.382812 -0.929688 0.472656 -0.953125 0.578125 -0.953125 C 0.671875 -0.953125 0.753906 -0.929688 0.828125 -0.890625 C 0.898438 -0.847656 0.957031 -0.789062 1 -0.71875 C 1.039062 -0.644531 1.0625 -0.5625 1.0625 -0.46875 C 1.0625 -0.382812 1.039062 -0.300781 1 -0.21875 C 0.957031 -0.144531 0.898438 -0.0859375 0.828125 -0.046875 C 0.753906 -0.00390625 0.671875 0.015625 0.578125 0.015625 Z M 0.578125 -0.078125 C 0.648438 -0.078125 0.710938 -0.09375 0.765625 -0.125 C 0.828125 -0.164062 0.875 -0.210938 0.90625 -0.265625 C 0.945312 -0.328125 0.96875 -0.394531 0.96875 -0.46875 C 0.96875 -0.550781 0.945312 -0.617188 0.90625 -0.671875 C 0.875 -0.734375 0.828125 -0.78125 0.765625 -0.8125 C 0.710938 -0.851562 0.648438 -0.875 0.578125 -0.875 C 0.492188 -0.875 0.421875 -0.851562 0.359375 -0.8125 C 0.304688 -0.78125 0.257812 -0.734375 0.21875 -0.671875 C 0.1875 -0.617188 0.171875 -0.550781 0.171875 -0.46875 C 0.171875 -0.394531 0.1875 -0.328125 0.21875 -0.265625 C 0.257812 -0.210938 0.304688 -0.164062 0.359375 -0.125 C 0.421875 -0.09375 0.492188 -0.078125 0.578125 -0.078125 Z M 0.578125 -0.078125 "/></g></g></g></g><g clip-path="url(#bd5915c919)"><g fill="#ffffff" fill-opacity="1"><g transform="translate(10.365056, 2.066314)"><g><path d="M 0.421875 0.015625 C 0.347656 0.015625 0.273438 0.00390625 0.203125 -0.015625 C 0.140625 -0.046875 0.09375 -0.078125 0.0625 -0.109375 L 0.109375 -0.1875 C 0.140625 -0.15625 0.179688 -0.128906 0.234375 -0.109375 C 0.296875 -0.0859375 0.359375 -0.078125 0.421875 -0.078125 C 0.503906 -0.078125 0.566406 -0.09375 0.609375 -0.125 C 0.648438 -0.15625 0.671875 -0.195312 0.671875 -0.25 C 0.671875 -0.28125 0.660156 -0.304688 0.640625 -0.328125 C 0.617188 -0.359375 0.585938 -0.378906 0.546875 -0.390625 C 0.515625 -0.398438 0.46875 -0.410156 0.40625 -0.421875 C 0.34375 -0.441406 0.285156 -0.457031 0.234375 -0.46875 C 0.191406 -0.488281 0.15625 -0.515625 0.125 -0.546875 C 0.101562 -0.585938 0.09375 -0.640625 0.09375 -0.703125 C 0.09375 -0.742188 0.101562 -0.785156 0.125 -0.828125 C 0.144531 -0.867188 0.179688 -0.898438 0.234375 -0.921875 C 0.296875 -0.941406 0.363281 -0.953125 0.4375 -0.953125 C 0.488281 -0.953125 0.539062 -0.945312 0.59375 -0.9375 C 0.644531 -0.925781 0.691406 -0.90625 0.734375 -0.875 L 0.703125 -0.796875 C 0.660156 -0.816406 0.613281 -0.832031 0.5625 -0.84375 C 0.519531 -0.863281 0.476562 -0.875 0.4375 -0.875 C 0.351562 -0.875 0.289062 -0.859375 0.25 -0.828125 C 0.207031 -0.796875 0.1875 -0.753906 0.1875 -0.703125 C 0.1875 -0.660156 0.195312 -0.628906 0.21875 -0.609375 C 0.238281 -0.585938 0.265625 -0.566406 0.296875 -0.546875 C 0.335938 -0.535156 0.390625 -0.523438 0.453125 -0.515625 C 0.515625 -0.492188 0.566406 -0.472656 0.609375 -0.453125 C 0.660156 -0.441406 0.695312 -0.421875 0.71875 -0.390625 C 0.75 -0.359375 0.765625 -0.3125 0.765625 -0.25 C 0.765625 -0.195312 0.75 -0.148438 0.71875 -0.109375 C 0.695312 -0.078125 0.660156 -0.046875 0.609375 -0.015625 C 0.554688 0.00390625 0.492188 0.015625 0.421875 0.015625 Z M 0.421875 0.015625 "/></g></g></g></g><g clip-path="url(#8f5a6476b0)"><g fill="#ffffff" fill-opacity="1"><g transform="translate(11.201487, 2.066314)"><g><path d="M 0.828125 -0.09375 L 0.828125 0 L 0.15625 0 L 0.15625 -0.953125 L 0.8125 -0.953125 L 0.8125 -0.859375 L 0.25 -0.859375 L 0.25 -0.53125 L 0.75 -0.53125 L 0.75 -0.4375 L 0.25 -0.4375 L 0.25 -0.09375 Z M 0.828125 -0.09375 "/></g></g></g></g><g clip-path="url(#785c59f741)"><g fill="#ffffff" fill-opacity="1"><g transform="translate(12.111516, 2.066314)"><g/></g></g></g></g></g><g transform="matrix(1, 0, 0, 1, 63, 23)"><g clip-path="url(#c0822a5424)"><g clip-path="url(#0e710a2be2)"><g fill="#ffffff" fill-opacity="1"><g transform="translate(0.371034, 2.066314)"><g><path d="M 0.953125 -0.953125 L 0.53125 0 L 0.421875 0 L 0 -0.953125 L 0.109375 -0.953125 L 0.484375 -0.125 L 0.84375 -0.953125 Z M 0.953125 -0.953125 "/></g></g></g></g><g clip-path="url(#7f14c03a48)"><g fill="#ffffff" fill-opacity="1"><g transform="translate(1.320349, 2.066314)"><g><path d="M 0.828125 -0.09375 L 0.828125 0 L 0.15625 0 L 0.15625 -0.953125 L 0.8125 -0.953125 L 0.8125 -0.859375 L 0.25 -0.859375 L 0.25 -0.53125 L 0.75 -0.53125 L 0.75 -0.4375 L 0.25 -0.4375 L 0.25 -0.09375 Z M 0.828125 -0.09375 "/></g></g></g></g><g clip-path="url(#89ac3ecd91)"><g fill="#ffffff" fill-opacity="1"><g transform="translate(2.230222, 2.066314)"><g><path d="M 0.953125 -0.953125 L 0.953125 0 L 0.875 0 L 0.25 -0.765625 L 0.25 0 L 0.15625 0 L 0.15625 -0.953125 L 0.234375 -0.953125 L 0.84375 -0.171875 L 0.84375 -0.953125 Z M 0.953125 -0.953125 "/></g></g></g></g><g clip-path="url(#09cfe90c71)"><g fill="#ffffff" fill-opacity="1"><g transform="translate(3.335942, 2.066314)"><g><path d="M 0.34375 -0.859375 L 0 -0.859375 L 0 -0.953125 L 0.78125 -0.953125 L 0.78125 -0.859375 L 0.4375 -0.859375 L 0.4375 0 L 0.34375 0 Z M 0.34375 -0.859375 "/></g></g></g></g><g clip-path="url(#ef4d038309)"><g fill="#ffffff" fill-opacity="1"><g transform="translate(4.11661, 2.066314)"><g><path d="M 0.53125 0.015625 C 0.414062 0.015625 0.320312 -0.0195312 0.25 -0.09375 C 0.175781 -0.164062 0.140625 -0.269531 0.140625 -0.40625 L 0.140625 -0.953125 L 0.25 -0.953125 L 0.25 -0.40625 C 0.25 -0.300781 0.269531 -0.21875 0.3125 -0.15625 C 0.363281 -0.101562 0.4375 -0.078125 0.53125 -0.078125 C 0.632812 -0.078125 0.707031 -0.101562 0.75 -0.15625 C 0.800781 -0.21875 0.828125 -0.300781 0.828125 -0.40625 L 0.828125 -0.953125 L 0.921875 -0.953125 L 0.921875 -0.40625 C 0.921875 -0.269531 0.882812 -0.164062 0.8125 -0.09375 C 0.75 -0.0195312 0.65625 0.015625 0.53125 0.015625 Z M 0.53125 0.015625 "/></g></g></g></g><g clip-path="url(#5a333d9266)"><g fill="#ffffff" fill-opacity="1"><g transform="translate(5.193769, 2.066314)"><g><path d="M 0.8125 0 L 0.59375 -0.3125 C 0.5625 -0.300781 0.535156 -0.296875 0.515625 -0.296875 L 0.25 -0.296875 L 0.25 0 L 0.15625 0 L 0.15625 -0.953125 L 0.515625 -0.953125 C 0.628906 -0.953125 0.722656 -0.921875 0.796875 -0.859375 C 0.867188 -0.804688 0.90625 -0.726562 0.90625 -0.625 C 0.90625 -0.550781 0.882812 -0.488281 0.84375 -0.4375 C 0.800781 -0.382812 0.75 -0.347656 0.6875 -0.328125 L 0.921875 0 Z M 0.515625 -0.390625 C 0.609375 -0.390625 0.675781 -0.410156 0.71875 -0.453125 C 0.769531 -0.492188 0.796875 -0.550781 0.796875 -0.625 C 0.796875 -0.695312 0.769531 -0.753906 0.71875 -0.796875 C 0.675781 -0.835938 0.609375 -0.859375 0.515625 -0.859375 L 0.25 -0.859375 L 0.25 -0.390625 Z M 0.515625 -0.390625 "/></g></g></g></g><g clip-path="url(#728c2064b5)"><g fill="#ffffff" fill-opacity="1"><g transform="translate(6.177085, 2.066314)"><g><path d="M 0.828125 -0.09375 L 0.828125 0 L 0.15625 0 L 0.15625 -0.953125 L 0.8125 -0.953125 L 0.8125 -0.859375 L 0.25 -0.859375 L 0.25 -0.53125 L 0.75 -0.53125 L 0.75 -0.4375 L 0.25 -0.4375 L 0.25 -0.09375 Z M 0.828125 -0.09375 "/></g></g></g></g><g clip-path="url(#b72e91e04a)"><g fill="#ffffff" fill-opacity="1"><g transform="translate(7.086958, 2.066314)"><g><path d="M 0.421875 0.015625 C 0.347656 0.015625 0.273438 0.00390625 0.203125 -0.015625 C 0.140625 -0.046875 0.09375 -0.078125 0.0625 -0.109375 L 0.109375 -0.1875 C 0.140625 -0.15625 0.179688 -0.128906 0.234375 -0.109375 C 0.296875 -0.0859375 0.359375 -0.078125 0.421875 -0.078125 C 0.503906 -0.078125 0.566406 -0.09375 0.609375 -0.125 C 0.648438 -0.15625 0.671875 -0.195312 0.671875 -0.25 C 0.671875 -0.28125 0.660156 -0.304688 0.640625 -0.328125 C 0.617188 -0.359375 0.585938 -0.378906 0.546875 -0.390625 C 0.515625 -0.398438 0.46875 -0.410156 0.40625 -0.421875 C 0.34375 -0.441406 0.285156 -0.457031 0.234375 -0.46875 C 0.191406 -0.488281 0.15625 -0.515625 0.125 -0.546875 C 0.101562 -0.585938 0.09375 -0.640625 0.09375 -0.703125 C 0.09375 -0.742188 0.101562 -0.785156 0.125 -0.828125 C 0.144531 -0.867188 0.179688 -0.898438 0.234375 -0.921875 C 0.296875 -0.941406 0.363281 -0.953125 0.4375 -0.953125 C 0.488281 -0.953125 0.539062 -0.945312 0.59375 -0.9375 C 0.644531 -0.925781 0.691406 -0.90625 0.734375 -0.875 L 0.703125 -0.796875 C 0.660156 -0.816406 0.613281 -0.832031 0.5625 -0.84375 C 0.519531 -0.863281 0.476562 -0.875 0.4375 -0.875 C 0.351562 -0.875 0.289062 -0.859375 0.25 -0.828125 C 0.207031 -0.796875 0.1875 -0.753906 0.1875 -0.703125 C 0.1875 -0.660156 0.195312 -0.628906 0.21875 -0.609375 C 0.238281 -0.585938 0.265625 -0.566406 0.296875 -0.546875 C 0.335938 -0.535156 0.390625 -0.523438 0.453125 -0.515625 C 0.515625 -0.492188 0.566406 -0.472656 0.609375 -0.453125 C 0.660156 -0.441406 0.695312 -0.421875 0.71875 -0.390625 C 0.75 -0.359375 0.765625 -0.3125 0.765625 -0.25 C 0.765625 -0.195312 0.75 -0.148438 0.71875 -0.109375 C 0.695312 -0.078125 0.660156 -0.046875 0.609375 -0.015625 C 0.554688 0.00390625 0.492188 0.015625 0.421875 0.015625 Z M 0.421875 0.015625 "/></g></g></g></g></g></g></svg>