<svg xmlns="http://www.w3.org/2000/svg" xmlns:xlink="http://www.w3.org/1999/xlink" width="154" zoomAndPan="magnify" viewBox="0 0 115.5 42.75" height="57" preserveAspectRatio="xMidYMid meet" version="1.0"><defs><g/><clipPath id="31d54c0d45"><path d="M 31.253906 11.554688 L 51 11.554688 L 51 21 L 31.253906 21 Z M 31.253906 11.554688 " clip-rule="nonzero"/></clipPath><clipPath id="c996286ad1"><path d="M 34 14 L 44 14 L 44 30.941406 L 34 30.941406 Z M 34 14 " clip-rule="nonzero"/></clipPath><clipPath id="a5500e1cbd"><path d="M 36 15 L 58.84375 15 L 58.84375 30.941406 L 36 30.941406 Z M 36 15 " clip-rule="nonzero"/></clipPath><clipPath id="db02f4a713"><path d="M 0.046875 1 L 5 1 L 5 5 L 0.046875 5 Z M 0.046875 1 " clip-rule="nonzero"/></clipPath><clipPath id="e21bad6e64"><rect x="0" width="26" y="0" height="7"/></clipPath><clipPath id="65c8995430"><path d="M 0.285156 0.0078125 L 3 0.0078125 L 3 3 L 0.285156 3 Z M 0.285156 0.0078125 " clip-rule="nonzero"/></clipPath><clipPath id="4f32b12a91"><path d="M 3 0.0078125 L 5 0.0078125 L 5 3 L 3 3 Z M 3 0.0078125 " clip-rule="nonzero"/></clipPath><clipPath id="648faa4c81"><path d="M 5 0.0078125 L 7 0.0078125 L 7 3 L 5 3 Z M 5 0.0078125 " clip-rule="nonzero"/></clipPath><clipPath id="2ba167080b"><path d="M 6 0.0078125 L 8 0.0078125 L 8 3 L 6 3 Z M 6 0.0078125 " clip-rule="nonzero"/></clipPath><clipPath id="c3283d97fb"><path d="M 7 0.0078125 L 9 0.0078125 L 9 3 L 7 3 Z M 7 0.0078125 " clip-rule="nonzero"/></clipPath><clipPath id="79b4090626"><path d="M 8 0.0078125 L 10 0.0078125 L 10 3 L 8 3 Z M 8 0.0078125 " clip-rule="nonzero"/></clipPath><clipPath id="eeafc07553"><path d="M 10 0.0078125 L 12 0.0078125 L 12 3 L 10 3 Z M 10 0.0078125 " clip-rule="nonzero"/></clipPath><clipPath id="46c542dadc"><path d="M 12 0.0078125 L 14 0.0078125 L 14 3 L 12 3 Z M 12 0.0078125 " clip-rule="nonzero"/></clipPath><clipPath id="fc752e3c26"><path d="M 14 0.0078125 L 16 0.0078125 L 16 3 L 14 3 Z M 14 0.0078125 " clip-rule="nonzero"/></clipPath><clipPath id="206524dbb3"><path d="M 15 0.0078125 L 18 0.0078125 L 18 3 L 15 3 Z M 15 0.0078125 " clip-rule="nonzero"/></clipPath><clipPath id="20530239a1"><path d="M 17 0.0078125 L 20 0.0078125 L 20 3 L 17 3 Z M 17 0.0078125 " clip-rule="nonzero"/></clipPath><clipPath id="ed76be205a"><path d="M 19 0.0078125 L 21 0.0078125 L 21 3 L 19 3 Z M 19 0.0078125 " clip-rule="nonzero"/></clipPath><clipPath id="bd05dfc8f3"><rect x="0" width="22" y="0" height="4"/></clipPath><clipPath id="df60f8d680"><path d="M 0.28125 0.0078125 L 3 0.0078125 L 3 3 L 0.28125 3 Z M 0.28125 0.0078125 " clip-rule="nonzero"/></clipPath><clipPath id="4e1ccd1bba"><path d="M 2 0.0078125 L 4 0.0078125 L 4 3 L 2 3 Z M 2 0.0078125 " clip-rule="nonzero"/></clipPath><clipPath id="731051f041"><path d="M 4 0.0078125 L 6 0.0078125 L 6 3 L 4 3 Z M 4 0.0078125 " clip-rule="nonzero"/></clipPath><clipPath id="28ca2f6a8b"><path d="M 5 0.0078125 L 8 0.0078125 L 8 3 L 5 3 Z M 5 0.0078125 " clip-rule="nonzero"/></clipPath><clipPath id="5ed2cc2c58"><path d="M 7 0.0078125 L 9 0.0078125 L 9 3 L 7 3 Z M 7 0.0078125 " clip-rule="nonzero"/></clipPath><clipPath id="9d825e17c6"><path d="M 9 0.0078125 L 11 0.0078125 L 11 3 L 9 3 Z M 9 0.0078125 " clip-rule="nonzero"/></clipPath><clipPath id="2defc4683f"><path d="M 11 0.0078125 L 13 0.0078125 L 13 3 L 11 3 Z M 11 0.0078125 " clip-rule="nonzero"/></clipPath><clipPath id="ba9473cad7"><path d="M 12 0.0078125 L 14.597656 0.0078125 L 14.597656 3 L 12 3 Z M 12 0.0078125 " clip-rule="nonzero"/></clipPath><clipPath id="8210679a7d"><rect x="0" width="15" y="0" height="4"/></clipPath></defs><g clip-path="url(#31d54c0d45)"><path fill="#c3921c" d="M 42.613281 11.558594 L 31.257812 18.101562 L 31.257812 20.46875 L 42.613281 13.925781 L 50.550781 18.507812 L 50.550781 16.140625 L 42.613281 11.558594 " fill-opacity="1" fill-rule="nonzero"/></g><g clip-path="url(#c996286ad1)"><path fill="#ffffff" d="M 42.613281 14.660156 L 34.675781 19.242188 L 34.675781 30.945312 L 35.980469 30.945312 L 35.980469 19.242188 L 43.265625 15.035156 L 42.613281 14.660156 " fill-opacity="1" fill-rule="nonzero"/></g><g clip-path="url(#a5500e1cbd)"><path fill="#ffffff" d="M 41.546875 22.957031 C 41.546875 22.234375 42.136719 21.640625 42.859375 21.640625 C 43.585938 21.640625 44.175781 22.234375 44.175781 22.957031 L 44.175781 30.128906 L 41.546875 29.980469 Z M 45.082031 30.179688 L 45.082031 22.957031 C 45.082031 21.730469 44.085938 20.738281 42.859375 20.738281 C 41.632812 20.738281 40.640625 21.730469 40.640625 22.957031 L 40.640625 29.929688 L 38.015625 29.78125 L 38.015625 19.75 L 44.488281 16.011719 L 43.910156 15.675781 L 36.851562 19.75 L 36.851562 30.945312 L 58.707031 30.945312 L 45.082031 30.179688 " fill-opacity="1" fill-rule="nonzero"/></g><g transform="matrix(1, 0, 0, 1, 48, 20)"><g clip-path="url(#e21bad6e64)"><g clip-path="url(#db02f4a713)"><g fill="#ffffff" fill-opacity="1"><g transform="translate(0.170103, 4.785716)"><g><path d="M 2.78125 -3.546875 L 4.203125 -3.546875 L 2.921875 -2.09375 L 4.21875 0 L 2.875 0 L 2.140625 -1.296875 L 1.515625 -0.796875 L 1.515625 0 L 0.375 0 L 0.375 -3.546875 L 1.515625 -3.546875 L 1.515625 -2.03125 Z M 2.78125 -3.546875 "/></g></g></g></g><g fill="#ffffff" fill-opacity="1"><g transform="translate(4.470477, 4.785716)"><g><path d="M 0.375 -3.546875 L 3.453125 -3.546875 L 3.453125 -2.703125 L 1.515625 -2.703125 L 1.515625 -2.203125 L 3.171875 -2.203125 L 3.171875 -1.390625 L 1.515625 -1.390625 L 1.515625 -0.84375 L 3.484375 -0.84375 L 3.484375 0 L 0.375 0 Z M 0.375 -3.546875 "/></g></g></g><g fill="#ffffff" fill-opacity="1"><g transform="translate(8.197812, 4.785716)"><g><path d="M 0.375 -3.546875 L 1.515625 -3.546875 L 1.515625 -0.90625 L 3.34375 -0.90625 L 3.34375 0 L 0.375 0 Z M 0.375 -3.546875 "/></g></g></g><g fill="#ffffff" fill-opacity="1"><g transform="translate(11.641209, 4.785716)"><g><path d="M 0.375 -3.546875 L 1.515625 -3.546875 L 1.515625 -0.90625 L 3.34375 -0.90625 L 3.34375 0 L 0.375 0 Z M 0.375 -3.546875 "/></g></g></g><g fill="#ffffff" fill-opacity="1"><g transform="translate(15.084607, 4.785716)"><g><path d="M 2.578125 0 L 1.4375 0 L 1.4375 -1.375 L 0.03125 -3.546875 L 1.34375 -3.546875 L 2.03125 -2.359375 L 2.046875 -2.359375 L 2.734375 -3.546875 L 3.96875 -3.546875 L 2.578125 -1.375 Z M 2.578125 0 "/></g></g></g><g fill="#ffffff" fill-opacity="1"><g transform="translate(19.101043, 4.785716)"><g><path d="M 2.75 -3.546875 C 2.925781 -3.546875 3.085938 -3.507812 3.234375 -3.4375 C 3.378906 -3.363281 3.492188 -3.257812 3.578125 -3.125 C 3.671875 -2.988281 3.71875 -2.835938 3.71875 -2.671875 C 3.71875 -2.234375 3.519531 -1.957031 3.125 -1.84375 L 3.125 -1.828125 C 3.582031 -1.722656 3.8125 -1.425781 3.8125 -0.9375 C 3.8125 -0.757812 3.765625 -0.597656 3.671875 -0.453125 C 3.578125 -0.304688 3.453125 -0.191406 3.296875 -0.109375 C 3.140625 -0.0351562 2.96875 0 2.78125 0 L 0.375 0 L 0.375 -3.546875 Z M 1.515625 -2.171875 L 2.3125 -2.171875 C 2.382812 -2.171875 2.441406 -2.195312 2.484375 -2.25 C 2.535156 -2.300781 2.5625 -2.363281 2.5625 -2.4375 L 2.5625 -2.5 C 2.5625 -2.570312 2.535156 -2.632812 2.484375 -2.6875 C 2.429688 -2.738281 2.375 -2.765625 2.3125 -2.765625 L 1.515625 -2.765625 Z M 1.515625 -0.828125 L 2.390625 -0.828125 C 2.460938 -0.828125 2.523438 -0.851562 2.578125 -0.90625 C 2.628906 -0.957031 2.65625 -1.023438 2.65625 -1.109375 L 2.65625 -1.15625 C 2.65625 -1.238281 2.628906 -1.304688 2.578125 -1.359375 C 2.523438 -1.410156 2.460938 -1.4375 2.390625 -1.4375 L 1.515625 -1.4375 Z M 1.515625 -0.828125 "/></g></g></g><g fill="#ffffff" fill-opacity="1"><g transform="translate(23.11748, 4.785716)"><g><path d="M 0.3125 0 L 0.3125 -1.03125 L 1.40625 -1.03125 L 1.40625 0 Z M 0.3125 0 "/></g></g></g></g></g><g transform="matrix(1, 0, 0, 1, 48, 26)"><g clip-path="url(#bd05dfc8f3)"><g clip-path="url(#65c8995430)"><g fill="#ffffff" fill-opacity="1"><g transform="translate(0.395933, 2.203835)"><g><path d="M 2.09375 -1.734375 L 2.09375 0 L 1.90625 0 L 1.90625 -1.390625 L 1.234375 -0.21875 L 1.140625 -0.21875 L 0.453125 -1.390625 L 0.453125 0 L 0.28125 0 L 0.28125 -1.734375 L 0.4375 -1.734375 L 1.1875 -0.453125 L 1.9375 -1.734375 Z M 2.09375 -1.734375 "/></g></g></g></g><g clip-path="url(#4f32b12a91)"><g fill="#ffffff" fill-opacity="1"><g transform="translate(2.762809, 2.203835)"><g><path d="M 0.984375 0.015625 C 0.753906 0.015625 0.578125 -0.046875 0.453125 -0.171875 C 0.328125 -0.304688 0.265625 -0.5 0.265625 -0.75 L 0.265625 -1.734375 L 0.453125 -1.734375 L 0.453125 -0.75 C 0.453125 -0.550781 0.492188 -0.398438 0.578125 -0.296875 C 0.671875 -0.203125 0.804688 -0.15625 0.984375 -0.15625 C 1.160156 -0.15625 1.289062 -0.203125 1.375 -0.296875 C 1.46875 -0.398438 1.515625 -0.550781 1.515625 -0.75 L 1.515625 -1.734375 L 1.703125 -1.734375 L 1.703125 -0.75 C 1.703125 -0.5 1.640625 -0.304688 1.515625 -0.171875 C 1.390625 -0.046875 1.210938 0.015625 0.984375 0.015625 Z M 0.984375 0.015625 "/></g></g></g></g><g clip-path="url(#648faa4c81)"><g fill="#ffffff" fill-opacity="1"><g transform="translate(4.725705, 2.203835)"><g><path d="M 0.28125 -1.734375 L 0.46875 -1.734375 L 0.46875 -0.15625 L 1.4375 -0.15625 L 1.4375 0 L 0.28125 0 Z M 0.28125 -1.734375 "/></g></g></g></g><g clip-path="url(#2ba167080b)"><g fill="#ffffff" fill-opacity="1"><g transform="translate(6.185487, 2.203835)"><g><path d="M 0.625 -1.578125 L 0.015625 -1.578125 L 0.015625 -1.734375 L 1.421875 -1.734375 L 1.421875 -1.578125 L 0.8125 -1.578125 L 0.8125 0 L 0.625 0 Z M 0.625 -1.578125 "/></g></g></g></g><g clip-path="url(#c3283d97fb)"><g fill="#ffffff" fill-opacity="1"><g transform="translate(7.608091, 2.203835)"><g><path d="M 0.28125 -1.734375 L 0.46875 -1.734375 L 0.46875 0 L 0.28125 0 Z M 0.28125 -1.734375 "/></g></g></g></g><g clip-path="url(#79b4090626)"><g fill="#ffffff" fill-opacity="1"><g transform="translate(8.35657, 2.203835)"><g><path d="M 0.9375 -1.734375 C 1.15625 -1.734375 1.328125 -1.679688 1.453125 -1.578125 C 1.578125 -1.472656 1.640625 -1.328125 1.640625 -1.140625 C 1.640625 -0.953125 1.578125 -0.804688 1.453125 -0.703125 C 1.328125 -0.597656 1.15625 -0.546875 0.9375 -0.546875 L 0.46875 -0.546875 L 0.46875 0 L 0.28125 0 L 0.28125 -1.734375 Z M 0.921875 -0.703125 C 1.097656 -0.703125 1.226562 -0.738281 1.3125 -0.8125 C 1.40625 -0.894531 1.453125 -1.003906 1.453125 -1.140625 C 1.453125 -1.285156 1.40625 -1.394531 1.3125 -1.46875 C 1.226562 -1.539062 1.097656 -1.578125 0.921875 -1.578125 L 0.46875 -1.578125 L 0.46875 -0.703125 Z M 0.921875 -0.703125 "/></g></g></g></g><g clip-path="url(#eeafc07553)"><g fill="#ffffff" fill-opacity="1"><g transform="translate(10.136064, 2.203835)"><g><path d="M 0.984375 0.015625 C 0.753906 0.015625 0.578125 -0.046875 0.453125 -0.171875 C 0.328125 -0.304688 0.265625 -0.5 0.265625 -0.75 L 0.265625 -1.734375 L 0.453125 -1.734375 L 0.453125 -0.75 C 0.453125 -0.550781 0.492188 -0.398438 0.578125 -0.296875 C 0.671875 -0.203125 0.804688 -0.15625 0.984375 -0.15625 C 1.160156 -0.15625 1.289062 -0.203125 1.375 -0.296875 C 1.46875 -0.398438 1.515625 -0.550781 1.515625 -0.75 L 1.515625 -1.734375 L 1.703125 -1.734375 L 1.703125 -0.75 C 1.703125 -0.5 1.640625 -0.304688 1.515625 -0.171875 C 1.390625 -0.046875 1.210938 0.015625 0.984375 0.015625 Z M 0.984375 0.015625 "/></g></g></g></g><g clip-path="url(#46c542dadc)"><g fill="#ffffff" fill-opacity="1"><g transform="translate(12.098961, 2.203835)"><g><path d="M 1.46875 0 L 1.078125 -0.5625 C 1.023438 -0.550781 0.976562 -0.546875 0.9375 -0.546875 L 0.46875 -0.546875 L 0.46875 0 L 0.28125 0 L 0.28125 -1.734375 L 0.9375 -1.734375 C 1.15625 -1.734375 1.328125 -1.679688 1.453125 -1.578125 C 1.578125 -1.472656 1.640625 -1.328125 1.640625 -1.140625 C 1.640625 -1.003906 1.601562 -0.890625 1.53125 -0.796875 C 1.46875 -0.703125 1.375 -0.632812 1.25 -0.59375 L 1.671875 0 Z M 0.921875 -0.703125 C 1.097656 -0.703125 1.226562 -0.738281 1.3125 -0.8125 C 1.40625 -0.894531 1.453125 -1.003906 1.453125 -1.140625 C 1.453125 -1.285156 1.40625 -1.394531 1.3125 -1.46875 C 1.226562 -1.539062 1.097656 -1.578125 0.921875 -1.578125 L 0.46875 -1.578125 L 0.46875 -0.703125 Z M 0.921875 -0.703125 "/></g></g></g></g><g clip-path="url(#fc752e3c26)"><g fill="#ffffff" fill-opacity="1"><g transform="translate(13.890847, 2.203835)"><g><path d="M 0.9375 -1.734375 C 1.15625 -1.734375 1.328125 -1.679688 1.453125 -1.578125 C 1.578125 -1.472656 1.640625 -1.328125 1.640625 -1.140625 C 1.640625 -0.953125 1.578125 -0.804688 1.453125 -0.703125 C 1.328125 -0.597656 1.15625 -0.546875 0.9375 -0.546875 L 0.46875 -0.546875 L 0.46875 0 L 0.28125 0 L 0.28125 -1.734375 Z M 0.921875 -0.703125 C 1.097656 -0.703125 1.226562 -0.738281 1.3125 -0.8125 C 1.40625 -0.894531 1.453125 -1.003906 1.453125 -1.140625 C 1.453125 -1.285156 1.40625 -1.394531 1.3125 -1.46875 C 1.226562 -1.539062 1.097656 -1.578125 0.921875 -1.578125 L 0.46875 -1.578125 L 0.46875 -0.703125 Z M 0.921875 -0.703125 "/></g></g></g></g><g clip-path="url(#206524dbb3)"><g fill="#ffffff" fill-opacity="1"><g transform="translate(15.670342, 2.203835)"><g><path d="M 1.046875 0.015625 C 0.867188 0.015625 0.707031 -0.0195312 0.5625 -0.09375 C 0.425781 -0.175781 0.316406 -0.285156 0.234375 -0.421875 C 0.160156 -0.554688 0.125 -0.707031 0.125 -0.875 C 0.125 -1.039062 0.160156 -1.1875 0.234375 -1.3125 C 0.316406 -1.445312 0.425781 -1.550781 0.5625 -1.625 C 0.707031 -1.707031 0.867188 -1.75 1.046875 -1.75 C 1.210938 -1.75 1.363281 -1.710938 1.5 -1.640625 C 1.644531 -1.566406 1.753906 -1.460938 1.828125 -1.328125 C 1.910156 -1.191406 1.953125 -1.039062 1.953125 -0.875 C 1.953125 -0.707031 1.910156 -0.554688 1.828125 -0.421875 C 1.753906 -0.285156 1.644531 -0.175781 1.5 -0.09375 C 1.363281 -0.0195312 1.210938 0.015625 1.046875 0.015625 Z M 1.046875 -0.15625 C 1.179688 -0.15625 1.300781 -0.179688 1.40625 -0.234375 C 1.519531 -0.296875 1.609375 -0.382812 1.671875 -0.5 C 1.734375 -0.613281 1.765625 -0.738281 1.765625 -0.875 C 1.765625 -1.007812 1.734375 -1.128906 1.671875 -1.234375 C 1.609375 -1.347656 1.519531 -1.4375 1.40625 -1.5 C 1.300781 -1.5625 1.179688 -1.59375 1.046875 -1.59375 C 0.910156 -1.59375 0.785156 -1.5625 0.671875 -1.5 C 0.554688 -1.4375 0.46875 -1.347656 0.40625 -1.234375 C 0.34375 -1.128906 0.3125 -1.007812 0.3125 -0.875 C 0.3125 -0.738281 0.34375 -0.613281 0.40625 -0.5 C 0.46875 -0.382812 0.554688 -0.296875 0.671875 -0.234375 C 0.785156 -0.179688 0.910156 -0.15625 1.046875 -0.15625 Z M 1.046875 -0.15625 "/></g></g></g></g><g clip-path="url(#20530239a1)"><g fill="#ffffff" fill-opacity="1"><g transform="translate(17.749723, 2.203835)"><g><path d="M 0.765625 0.015625 C 0.628906 0.015625 0.503906 -0.00390625 0.390625 -0.046875 C 0.273438 -0.0859375 0.179688 -0.144531 0.109375 -0.21875 L 0.1875 -0.359375 C 0.25 -0.296875 0.332031 -0.242188 0.4375 -0.203125 C 0.539062 -0.160156 0.648438 -0.140625 0.765625 -0.140625 C 0.921875 -0.140625 1.035156 -0.164062 1.109375 -0.21875 C 1.191406 -0.28125 1.234375 -0.359375 1.234375 -0.453125 C 1.234375 -0.515625 1.210938 -0.566406 1.171875 -0.609375 C 1.128906 -0.648438 1.078125 -0.679688 1.015625 -0.703125 C 0.953125 -0.734375 0.863281 -0.757812 0.75 -0.78125 C 0.625 -0.8125 0.519531 -0.84375 0.4375 -0.875 C 0.363281 -0.90625 0.296875 -0.953125 0.234375 -1.015625 C 0.179688 -1.078125 0.15625 -1.164062 0.15625 -1.28125 C 0.15625 -1.363281 0.175781 -1.441406 0.21875 -1.515625 C 0.269531 -1.585938 0.34375 -1.644531 0.4375 -1.6875 C 0.539062 -1.726562 0.660156 -1.75 0.796875 -1.75 C 0.898438 -1.75 1 -1.734375 1.09375 -1.703125 C 1.1875 -1.679688 1.269531 -1.644531 1.34375 -1.59375 L 1.28125 -1.453125 C 1.207031 -1.503906 1.128906 -1.539062 1.046875 -1.5625 C 0.960938 -1.582031 0.878906 -1.59375 0.796875 -1.59375 C 0.648438 -1.59375 0.535156 -1.5625 0.453125 -1.5 C 0.378906 -1.445312 0.34375 -1.375 0.34375 -1.28125 C 0.34375 -1.207031 0.363281 -1.148438 0.40625 -1.109375 C 0.445312 -1.066406 0.5 -1.035156 0.5625 -1.015625 C 0.625 -0.992188 0.707031 -0.96875 0.8125 -0.9375 C 0.945312 -0.90625 1.050781 -0.875 1.125 -0.84375 C 1.207031 -0.820312 1.273438 -0.78125 1.328125 -0.71875 C 1.378906 -0.65625 1.40625 -0.566406 1.40625 -0.453125 C 1.40625 -0.367188 1.378906 -0.289062 1.328125 -0.21875 C 1.285156 -0.144531 1.210938 -0.0859375 1.109375 -0.046875 C 1.015625 -0.00390625 0.898438 0.015625 0.765625 0.015625 Z M 0.765625 0.015625 "/></g></g></g></g><g clip-path="url(#ed76be205a)"><g fill="#ffffff" fill-opacity="1"><g transform="translate(19.273943, 2.203835)"><g><path d="M 1.515625 -0.15625 L 1.515625 0 L 0.28125 0 L 0.28125 -1.734375 L 1.46875 -1.734375 L 1.46875 -1.578125 L 0.46875 -1.578125 L 0.46875 -0.96875 L 1.359375 -0.96875 L 1.359375 -0.8125 L 0.46875 -0.8125 L 0.46875 -0.15625 Z M 1.515625 -0.15625 "/></g></g></g></g><g fill="#ffffff" fill-opacity="1"><g transform="translate(20.932279, 2.203835)"><g/></g></g></g></g><g transform="matrix(1, 0, 0, 1, 69, 26)"><g clip-path="url(#8210679a7d)"><g clip-path="url(#df60f8d680)"><g fill="#ffffff" fill-opacity="1"><g transform="translate(0.405199, 2.203835)"><g><path d="M 1.734375 -1.734375 L 0.953125 0 L 0.78125 0 L 0 -1.734375 L 0.203125 -1.734375 L 0.875 -0.234375 L 1.546875 -1.734375 Z M 1.734375 -1.734375 "/></g></g></g></g><g clip-path="url(#4e1ccd1bba)"><g fill="#ffffff" fill-opacity="1"><g transform="translate(2.135126, 2.203835)"><g><path d="M 1.515625 -0.15625 L 1.515625 0 L 0.28125 0 L 0.28125 -1.734375 L 1.46875 -1.734375 L 1.46875 -1.578125 L 0.46875 -1.578125 L 0.46875 -0.96875 L 1.359375 -0.96875 L 1.359375 -0.8125 L 0.46875 -0.8125 L 0.46875 -0.15625 Z M 1.515625 -0.15625 "/></g></g></g></g><g clip-path="url(#731051f041)"><g fill="#ffffff" fill-opacity="1"><g transform="translate(3.793179, 2.203835)"><g><path d="M 1.734375 -1.734375 L 1.734375 0 L 1.578125 0 L 0.46875 -1.40625 L 0.46875 0 L 0.28125 0 L 0.28125 -1.734375 L 0.4375 -1.734375 L 1.5625 -0.328125 L 1.5625 -1.734375 Z M 1.734375 -1.734375 "/></g></g></g></g><g clip-path="url(#28ca2f6a8b)"><g fill="#ffffff" fill-opacity="1"><g transform="translate(5.808122, 2.203835)"><g><path d="M 0.625 -1.578125 L 0.015625 -1.578125 L 0.015625 -1.734375 L 1.421875 -1.734375 L 1.421875 -1.578125 L 0.8125 -1.578125 L 0.8125 0 L 0.625 0 Z M 0.625 -1.578125 "/></g></g></g></g><g clip-path="url(#5ed2cc2c58)"><g fill="#ffffff" fill-opacity="1"><g transform="translate(7.230726, 2.203835)"><g><path d="M 0.984375 0.015625 C 0.753906 0.015625 0.578125 -0.046875 0.453125 -0.171875 C 0.328125 -0.304688 0.265625 -0.5 0.265625 -0.75 L 0.265625 -1.734375 L 0.453125 -1.734375 L 0.453125 -0.75 C 0.453125 -0.550781 0.492188 -0.398438 0.578125 -0.296875 C 0.671875 -0.203125 0.804688 -0.15625 0.984375 -0.15625 C 1.160156 -0.15625 1.289062 -0.203125 1.375 -0.296875 C 1.46875 -0.398438 1.515625 -0.550781 1.515625 -0.75 L 1.515625 -1.734375 L 1.703125 -1.734375 L 1.703125 -0.75 C 1.703125 -0.5 1.640625 -0.304688 1.515625 -0.171875 C 1.390625 -0.046875 1.210938 0.015625 0.984375 0.015625 Z M 0.984375 0.015625 "/></g></g></g></g><g clip-path="url(#9d825e17c6)"><g fill="#ffffff" fill-opacity="1"><g transform="translate(9.193623, 2.203835)"><g><path d="M 1.46875 0 L 1.078125 -0.5625 C 1.023438 -0.550781 0.976562 -0.546875 0.9375 -0.546875 L 0.46875 -0.546875 L 0.46875 0 L 0.28125 0 L 0.28125 -1.734375 L 0.9375 -1.734375 C 1.15625 -1.734375 1.328125 -1.679688 1.453125 -1.578125 C 1.578125 -1.472656 1.640625 -1.328125 1.640625 -1.140625 C 1.640625 -1.003906 1.601562 -0.890625 1.53125 -0.796875 C 1.46875 -0.703125 1.375 -0.632812 1.25 -0.59375 L 1.671875 0 Z M 0.921875 -0.703125 C 1.097656 -0.703125 1.226562 -0.738281 1.3125 -0.8125 C 1.40625 -0.894531 1.453125 -1.003906 1.453125 -1.140625 C 1.453125 -1.285156 1.40625 -1.394531 1.3125 -1.46875 C 1.226562 -1.539062 1.097656 -1.578125 0.921875 -1.578125 L 0.46875 -1.578125 L 0.46875 -0.703125 Z M 0.921875 -0.703125 "/></g></g></g></g><g clip-path="url(#2defc4683f)"><g fill="#ffffff" fill-opacity="1"><g transform="translate(10.985509, 2.203835)"><g><path d="M 1.515625 -0.15625 L 1.515625 0 L 0.28125 0 L 0.28125 -1.734375 L 1.46875 -1.734375 L 1.46875 -1.578125 L 0.46875 -1.578125 L 0.46875 -0.96875 L 1.359375 -0.96875 L 1.359375 -0.8125 L 0.46875 -0.8125 L 0.46875 -0.15625 Z M 1.515625 -0.15625 "/></g></g></g></g><g clip-path="url(#ba9473cad7)"><g fill="#ffffff" fill-opacity="1"><g transform="translate(12.643563, 2.203835)"><g><path d="M 0.765625 0.015625 C 0.628906 0.015625 0.503906 -0.00390625 0.390625 -0.046875 C 0.273438 -0.0859375 0.179688 -0.144531 0.109375 -0.21875 L 0.1875 -0.359375 C 0.25 -0.296875 0.332031 -0.242188 0.4375 -0.203125 C 0.539062 -0.160156 0.648438 -0.140625 0.765625 -0.140625 C 0.921875 -0.140625 1.035156 -0.164062 1.109375 -0.21875 C 1.191406 -0.28125 1.234375 -0.359375 1.234375 -0.453125 C 1.234375 -0.515625 1.210938 -0.566406 1.171875 -0.609375 C 1.128906 -0.648438 1.078125 -0.679688 1.015625 -0.703125 C 0.953125 -0.734375 0.863281 -0.757812 0.75 -0.78125 C 0.625 -0.8125 0.519531 -0.84375 0.4375 -0.875 C 0.363281 -0.90625 0.296875 -0.953125 0.234375 -1.015625 C 0.179688 -1.078125 0.15625 -1.164062 0.15625 -1.28125 C 0.15625 -1.363281 0.175781 -1.441406 0.21875 -1.515625 C 0.269531 -1.585938 0.34375 -1.644531 0.4375 -1.6875 C 0.539062 -1.726562 0.660156 -1.75 0.796875 -1.75 C 0.898438 -1.75 1 -1.734375 1.09375 -1.703125 C 1.1875 -1.679688 1.269531 -1.644531 1.34375 -1.59375 L 1.28125 -1.453125 C 1.207031 -1.503906 1.128906 -1.539062 1.046875 -1.5625 C 0.960938 -1.582031 0.878906 -1.59375 0.796875 -1.59375 C 0.648438 -1.59375 0.535156 -1.5625 0.453125 -1.5 C 0.378906 -1.445312 0.34375 -1.375 0.34375 -1.28125 C 0.34375 -1.207031 0.363281 -1.148438 0.40625 -1.109375 C 0.445312 -1.066406 0.5 -1.035156 0.5625 -1.015625 C 0.625 -0.992188 0.707031 -0.96875 0.8125 -0.9375 C 0.945312 -0.90625 1.050781 -0.875 1.125 -0.84375 C 1.207031 -0.820312 1.273438 -0.78125 1.328125 -0.71875 C 1.378906 -0.65625 1.40625 -0.566406 1.40625 -0.453125 C 1.40625 -0.367188 1.378906 -0.289062 1.328125 -0.21875 C 1.285156 -0.144531 1.210938 -0.0859375 1.109375 -0.046875 C 1.015625 -0.00390625 0.898438 0.015625 0.765625 0.015625 Z M 0.765625 0.015625 "/></g></g></g></g></g></g></svg>