<svg xmlns="http://www.w3.org/2000/svg" xmlns:xlink="http://www.w3.org/1999/xlink" width="154" zoomAndPan="magnify" viewBox="0 0 115.5 42.75" height="57" preserveAspectRatio="xMidYMid meet" version="1.0"><defs><g/><clipPath id="db06ee775e"><path d="M 17.160156 6.347656 L 47 6.347656 L 47 21 L 17.160156 21 Z M 17.160156 6.347656 " clip-rule="nonzero"/></clipPath><clipPath id="0f8ca8477b"><path d="M 22 11 L 36 11 L 36 36.175781 L 22 36.175781 Z M 22 11 " clip-rule="nonzero"/></clipPath><clipPath id="152beae694"><path d="M 25 12 L 59.660156 12 L 59.660156 36.175781 L 25 36.175781 Z M 25 12 " clip-rule="nonzero"/></clipPath><clipPath id="0a6255d47e"><path d="M 0.0351562 2 L 7 2 L 7 8 L 0.0351562 8 Z M 0.0351562 2 " clip-rule="nonzero"/></clipPath><clipPath id="afd2ce45d2"><rect x="0" width="39" y="0" height="10"/></clipPath><clipPath id="21e41ca33c"><path d="M 0.273438 1 L 4 1 L 4 4 L 0.273438 4 Z M 0.273438 1 " clip-rule="nonzero"/></clipPath><clipPath id="170ed52bbb"><rect x="0" width="34" y="0" height="6"/></clipPath><clipPath id="36bef84a3a"><path d="M 0.484375 1 L 4 1 L 4 4 L 0.484375 4 Z M 0.484375 1 " clip-rule="nonzero"/></clipPath><clipPath id="f6a18e5e18"><rect x="0" width="23" y="0" height="6"/></clipPath></defs><g clip-path="url(#db06ee775e)"><path fill="#c3921c" d="M 34.621094 6.351562 L 17.160156 16.410156 L 17.160156 20.050781 L 34.621094 9.992188 L 46.824219 17.039062 L 46.824219 13.394531 L 34.621094 6.351562 " fill-opacity="1" fill-rule="nonzero"/></g><g clip-path="url(#0f8ca8477b)"><path fill="#ffffff" d="M 34.621094 11.117188 L 22.417969 18.164062 L 22.417969 36.152344 L 24.425781 36.152344 L 24.425781 18.164062 L 35.625 11.695312 L 34.621094 11.117188 " fill-opacity="1" fill-rule="nonzero"/></g><g clip-path="url(#152beae694)"><path fill="#ffffff" d="M 32.976562 23.875 C 32.976562 22.761719 33.886719 21.855469 35 21.855469 C 36.113281 21.855469 37.019531 22.761719 37.019531 23.875 L 37.019531 34.898438 L 32.976562 34.671875 Z M 38.414062 34.976562 L 38.414062 23.875 C 38.414062 21.992188 36.886719 20.460938 35 20.460938 C 33.113281 20.460938 31.585938 21.992188 31.585938 23.875 L 31.585938 34.59375 L 27.550781 34.367188 L 27.550781 18.945312 L 37.503906 13.199219 L 36.609375 12.683594 L 25.765625 18.945312 L 25.765625 36.152344 L 59.359375 36.152344 L 38.414062 34.976562 " fill-opacity="1" fill-rule="nonzero"/></g><g transform="matrix(1, 0, 0, 1, 43, 19)"><g clip-path="url(#afd2ce45d2)"><g clip-path="url(#0a6255d47e)"><g fill="#ffffff" fill-opacity="1"><g transform="translate(0.158114, 7.684403)"><g><path d="M 4.28125 -5.46875 L 6.46875 -5.46875 L 4.5 -3.21875 L 6.5 0 L 4.421875 0 L 3.296875 -2 L 2.34375 -1.21875 L 2.34375 0 L 0.59375 0 L 0.59375 -5.46875 L 2.34375 -5.46875 L 2.34375 -3.125 Z M 4.28125 -5.46875 "/></g></g></g></g><g fill="#ffffff" fill-opacity="1"><g transform="translate(6.768275, 7.684403)"><g><path d="M 0.59375 -5.46875 L 5.3125 -5.46875 L 5.3125 -4.15625 L 2.34375 -4.15625 L 2.34375 -3.390625 L 4.875 -3.390625 L 4.875 -2.140625 L 2.34375 -2.140625 L 2.34375 -1.3125 L 5.359375 -1.3125 L 5.359375 0 L 0.59375 0 Z M 0.59375 -5.46875 "/></g></g></g><g fill="#ffffff" fill-opacity="1"><g transform="translate(12.497609, 7.684403)"><g><path d="M 0.59375 -5.46875 L 2.34375 -5.46875 L 2.34375 -1.390625 L 5.140625 -1.390625 L 5.140625 0 L 0.59375 0 Z M 0.59375 -5.46875 "/></g></g></g><g fill="#ffffff" fill-opacity="1"><g transform="translate(17.7905, 7.684403)"><g><path d="M 0.59375 -5.46875 L 2.34375 -5.46875 L 2.34375 -1.390625 L 5.140625 -1.390625 L 5.140625 0 L 0.59375 0 Z M 0.59375 -5.46875 "/></g></g></g><g fill="#ffffff" fill-opacity="1"><g transform="translate(23.08339, 7.684403)"><g><path d="M 3.984375 0 L 2.21875 0 L 2.21875 -2.125 L 0.0625 -5.46875 L 2.078125 -5.46875 L 3.125 -3.640625 L 3.15625 -3.640625 L 4.203125 -5.46875 L 6.109375 -5.46875 L 3.984375 -2.125 Z M 3.984375 0 "/></g></g></g><g fill="#ffffff" fill-opacity="1"><g transform="translate(29.257107, 7.684403)"><g><path d="M 4.21875 -5.46875 C 4.5 -5.46875 4.753906 -5.410156 4.984375 -5.296875 C 5.210938 -5.179688 5.394531 -5.019531 5.53125 -4.8125 C 5.664062 -4.601562 5.734375 -4.375 5.734375 -4.125 C 5.734375 -3.445312 5.425781 -3.019531 4.8125 -2.84375 L 4.8125 -2.8125 C 5.507812 -2.65625 5.859375 -2.203125 5.859375 -1.453125 C 5.859375 -1.171875 5.785156 -0.914062 5.640625 -0.6875 C 5.503906 -0.46875 5.3125 -0.296875 5.0625 -0.171875 C 4.820312 -0.0546875 4.554688 0 4.265625 0 L 0.59375 0 L 0.59375 -5.46875 Z M 2.34375 -3.328125 L 3.546875 -3.328125 C 3.660156 -3.328125 3.753906 -3.367188 3.828125 -3.453125 C 3.910156 -3.535156 3.953125 -3.640625 3.953125 -3.765625 L 3.953125 -3.84375 C 3.953125 -3.957031 3.910156 -4.054688 3.828125 -4.140625 C 3.753906 -4.222656 3.660156 -4.265625 3.546875 -4.265625 L 2.34375 -4.265625 Z M 2.34375 -1.265625 L 3.671875 -1.265625 C 3.785156 -1.265625 3.878906 -1.304688 3.953125 -1.390625 C 4.035156 -1.472656 4.078125 -1.578125 4.078125 -1.703125 L 4.078125 -1.78125 C 4.078125 -1.894531 4.035156 -1.992188 3.953125 -2.078125 C 3.878906 -2.160156 3.785156 -2.203125 3.671875 -2.203125 L 2.34375 -2.203125 Z M 2.34375 -1.265625 "/></g></g></g><g fill="#ffffff" fill-opacity="1"><g transform="translate(35.430824, 7.684403)"><g><path d="M 0.484375 0 L 0.484375 -1.578125 L 2.171875 -1.578125 L 2.171875 0 Z M 0.484375 0 "/></g></g></g></g></g><g transform="matrix(1, 0, 0, 1, 43, 28)"><g clip-path="url(#170ed52bbb)"><g clip-path="url(#21e41ca33c)"><g fill="#ffffff" fill-opacity="1"><g transform="translate(0.505241, 3.938437)"><g><path d="M 3.203125 -2.671875 L 3.203125 0 L 2.9375 0 L 2.9375 -2.140625 L 1.890625 -0.34375 L 1.75 -0.34375 L 0.703125 -2.125 L 0.703125 0 L 0.4375 0 L 0.4375 -2.671875 L 0.671875 -2.671875 L 1.828125 -0.6875 L 2.96875 -2.671875 Z M 3.203125 -2.671875 "/></g></g></g></g><g fill="#ffffff" fill-opacity="1"><g transform="translate(4.143396, 3.938437)"><g><path d="M 1.515625 0.015625 C 1.160156 0.015625 0.882812 -0.0820312 0.6875 -0.28125 C 0.5 -0.476562 0.40625 -0.765625 0.40625 -1.140625 L 0.40625 -2.671875 L 0.6875 -2.671875 L 0.6875 -1.15625 C 0.6875 -0.84375 0.753906 -0.609375 0.890625 -0.453125 C 1.035156 -0.304688 1.242188 -0.234375 1.515625 -0.234375 C 1.773438 -0.234375 1.972656 -0.304688 2.109375 -0.453125 C 2.253906 -0.609375 2.328125 -0.84375 2.328125 -1.15625 L 2.328125 -2.671875 L 2.609375 -2.671875 L 2.609375 -1.140625 C 2.609375 -0.765625 2.507812 -0.476562 2.3125 -0.28125 C 2.125 -0.0820312 1.859375 0.015625 1.515625 0.015625 Z M 1.515625 0.015625 "/></g></g></g><g fill="#ffffff" fill-opacity="1"><g transform="translate(7.16059, 3.938437)"><g><path d="M 0.4375 -2.671875 L 0.71875 -2.671875 L 0.71875 -0.25 L 2.21875 -0.25 L 2.21875 0 L 0.4375 0 Z M 0.4375 -2.671875 "/></g></g></g><g fill="#ffffff" fill-opacity="1"><g transform="translate(9.404439, 3.938437)"><g><path d="M 0.953125 -2.421875 L 0.015625 -2.421875 L 0.015625 -2.671875 L 2.171875 -2.671875 L 2.171875 -2.421875 L 1.234375 -2.421875 L 1.234375 0 L 0.953125 0 Z M 0.953125 -2.421875 "/></g></g></g><g fill="#ffffff" fill-opacity="1"><g transform="translate(11.591143, 3.938437)"><g><path d="M 0.4375 -2.671875 L 0.71875 -2.671875 L 0.71875 0 L 0.4375 0 Z M 0.4375 -2.671875 "/></g></g></g><g fill="#ffffff" fill-opacity="1"><g transform="translate(12.74164, 3.938437)"><g><path d="M 1.4375 -2.671875 C 1.769531 -2.671875 2.035156 -2.585938 2.234375 -2.421875 C 2.429688 -2.265625 2.53125 -2.039062 2.53125 -1.75 C 2.53125 -1.46875 2.429688 -1.242188 2.234375 -1.078125 C 2.035156 -0.921875 1.769531 -0.84375 1.4375 -0.84375 L 0.71875 -0.84375 L 0.71875 0 L 0.4375 0 L 0.4375 -2.671875 Z M 1.421875 -1.09375 C 1.691406 -1.09375 1.894531 -1.148438 2.03125 -1.265625 C 2.164062 -1.378906 2.234375 -1.539062 2.234375 -1.75 C 2.234375 -1.96875 2.164062 -2.132812 2.03125 -2.25 C 1.894531 -2.363281 1.691406 -2.421875 1.421875 -2.421875 L 0.71875 -2.421875 L 0.71875 -1.09375 Z M 1.421875 -1.09375 "/></g></g></g><g fill="#ffffff" fill-opacity="1"><g transform="translate(15.476923, 3.938437)"><g><path d="M 1.515625 0.015625 C 1.160156 0.015625 0.882812 -0.0820312 0.6875 -0.28125 C 0.5 -0.476562 0.40625 -0.765625 0.40625 -1.140625 L 0.40625 -2.671875 L 0.6875 -2.671875 L 0.6875 -1.15625 C 0.6875 -0.84375 0.753906 -0.609375 0.890625 -0.453125 C 1.035156 -0.304688 1.242188 -0.234375 1.515625 -0.234375 C 1.773438 -0.234375 1.972656 -0.304688 2.109375 -0.453125 C 2.253906 -0.609375 2.328125 -0.84375 2.328125 -1.15625 L 2.328125 -2.671875 L 2.609375 -2.671875 L 2.609375 -1.140625 C 2.609375 -0.765625 2.507812 -0.476562 2.3125 -0.28125 C 2.125 -0.0820312 1.859375 0.015625 1.515625 0.015625 Z M 1.515625 0.015625 "/></g></g></g><g fill="#ffffff" fill-opacity="1"><g transform="translate(18.494117, 3.938437)"><g><path d="M 2.25 0 L 1.640625 -0.859375 C 1.578125 -0.847656 1.507812 -0.84375 1.4375 -0.84375 L 0.71875 -0.84375 L 0.71875 0 L 0.4375 0 L 0.4375 -2.671875 L 1.4375 -2.671875 C 1.769531 -2.671875 2.035156 -2.585938 2.234375 -2.421875 C 2.429688 -2.265625 2.53125 -2.039062 2.53125 -1.75 C 2.53125 -1.539062 2.472656 -1.363281 2.359375 -1.21875 C 2.253906 -1.082031 2.101562 -0.984375 1.90625 -0.921875 L 2.5625 0 Z M 1.421875 -1.09375 C 1.691406 -1.09375 1.894531 -1.148438 2.03125 -1.265625 C 2.164062 -1.378906 2.234375 -1.539062 2.234375 -1.75 C 2.234375 -1.96875 2.164062 -2.132812 2.03125 -2.25 C 1.894531 -2.363281 1.691406 -2.421875 1.421875 -2.421875 L 0.71875 -2.421875 L 0.71875 -1.09375 Z M 1.421875 -1.09375 "/></g></g></g><g fill="#ffffff" fill-opacity="1"><g transform="translate(21.248449, 3.938437)"><g><path d="M 1.4375 -2.671875 C 1.769531 -2.671875 2.035156 -2.585938 2.234375 -2.421875 C 2.429688 -2.265625 2.53125 -2.039062 2.53125 -1.75 C 2.53125 -1.46875 2.429688 -1.242188 2.234375 -1.078125 C 2.035156 -0.921875 1.769531 -0.84375 1.4375 -0.84375 L 0.71875 -0.84375 L 0.71875 0 L 0.4375 0 L 0.4375 -2.671875 Z M 1.421875 -1.09375 C 1.691406 -1.09375 1.894531 -1.148438 2.03125 -1.265625 C 2.164062 -1.378906 2.234375 -1.539062 2.234375 -1.75 C 2.234375 -1.96875 2.164062 -2.132812 2.03125 -2.25 C 1.894531 -2.363281 1.691406 -2.421875 1.421875 -2.421875 L 0.71875 -2.421875 L 0.71875 -1.09375 Z M 1.421875 -1.09375 "/></g></g></g><g fill="#ffffff" fill-opacity="1"><g transform="translate(23.983732, 3.938437)"><g><path d="M 1.59375 0.015625 C 1.332031 0.015625 1.09375 -0.0390625 0.875 -0.15625 C 0.664062 -0.269531 0.5 -0.429688 0.375 -0.640625 C 0.257812 -0.847656 0.203125 -1.078125 0.203125 -1.328125 C 0.203125 -1.585938 0.257812 -1.820312 0.375 -2.03125 C 0.5 -2.238281 0.664062 -2.398438 0.875 -2.515625 C 1.09375 -2.628906 1.332031 -2.6875 1.59375 -2.6875 C 1.863281 -2.6875 2.101562 -2.628906 2.3125 -2.515625 C 2.53125 -2.398438 2.695312 -2.238281 2.8125 -2.03125 C 2.9375 -1.820312 3 -1.585938 3 -1.328125 C 3 -1.078125 2.9375 -0.847656 2.8125 -0.640625 C 2.695312 -0.429688 2.53125 -0.269531 2.3125 -0.15625 C 2.101562 -0.0390625 1.863281 0.015625 1.59375 0.015625 Z M 1.59375 -0.234375 C 1.8125 -0.234375 2.003906 -0.28125 2.171875 -0.375 C 2.335938 -0.46875 2.46875 -0.597656 2.5625 -0.765625 C 2.664062 -0.929688 2.71875 -1.117188 2.71875 -1.328125 C 2.71875 -1.535156 2.664062 -1.722656 2.5625 -1.890625 C 2.46875 -2.066406 2.335938 -2.203125 2.171875 -2.296875 C 2.003906 -2.390625 1.8125 -2.4375 1.59375 -2.4375 C 1.382812 -2.4375 1.191406 -2.390625 1.015625 -2.296875 C 0.847656 -2.203125 0.71875 -2.066406 0.625 -1.890625 C 0.53125 -1.722656 0.484375 -1.535156 0.484375 -1.328125 C 0.484375 -1.117188 0.53125 -0.929688 0.625 -0.765625 C 0.71875 -0.597656 0.847656 -0.46875 1.015625 -0.375 C 1.191406 -0.28125 1.382812 -0.234375 1.59375 -0.234375 Z M 1.59375 -0.234375 "/></g></g></g><g fill="#ffffff" fill-opacity="1"><g transform="translate(27.179976, 3.938437)"><g><path d="M 1.171875 0.015625 C 0.972656 0.015625 0.78125 -0.015625 0.59375 -0.078125 C 0.414062 -0.140625 0.273438 -0.222656 0.171875 -0.328125 L 0.296875 -0.546875 C 0.390625 -0.441406 0.515625 -0.359375 0.671875 -0.296875 C 0.835938 -0.242188 1.003906 -0.21875 1.171875 -0.21875 C 1.410156 -0.21875 1.585938 -0.257812 1.703125 -0.34375 C 1.828125 -0.4375 1.890625 -0.550781 1.890625 -0.6875 C 1.890625 -0.789062 1.851562 -0.875 1.78125 -0.9375 C 1.71875 -1.007812 1.640625 -1.0625 1.546875 -1.09375 C 1.453125 -1.125 1.320312 -1.160156 1.15625 -1.203125 C 0.957031 -1.253906 0.796875 -1.300781 0.671875 -1.34375 C 0.554688 -1.394531 0.457031 -1.46875 0.375 -1.5625 C 0.289062 -1.664062 0.25 -1.796875 0.25 -1.953125 C 0.25 -2.085938 0.28125 -2.210938 0.34375 -2.328125 C 0.414062 -2.441406 0.523438 -2.53125 0.671875 -2.59375 C 0.828125 -2.65625 1.015625 -2.6875 1.234375 -2.6875 C 1.378906 -2.6875 1.523438 -2.664062 1.671875 -2.625 C 1.816406 -2.582031 1.945312 -2.523438 2.0625 -2.453125 L 1.953125 -2.234375 C 1.847656 -2.304688 1.726562 -2.359375 1.59375 -2.390625 C 1.46875 -2.429688 1.347656 -2.453125 1.234375 -2.453125 C 0.992188 -2.453125 0.8125 -2.40625 0.6875 -2.3125 C 0.570312 -2.226562 0.515625 -2.113281 0.515625 -1.96875 C 0.515625 -1.863281 0.546875 -1.773438 0.609375 -1.703125 C 0.679688 -1.640625 0.765625 -1.59375 0.859375 -1.5625 C 0.960938 -1.53125 1.097656 -1.492188 1.265625 -1.453125 C 1.453125 -1.398438 1.601562 -1.347656 1.71875 -1.296875 C 1.84375 -1.253906 1.945312 -1.1875 2.03125 -1.09375 C 2.125 -1 2.171875 -0.867188 2.171875 -0.703125 C 2.171875 -0.566406 2.132812 -0.441406 2.0625 -0.328125 C 1.988281 -0.222656 1.875 -0.140625 1.71875 -0.078125 C 1.570312 -0.015625 1.390625 0.015625 1.171875 0.015625 Z M 1.171875 0.015625 "/></g></g></g><g fill="#ffffff" fill-opacity="1"><g transform="translate(29.522874, 3.938437)"><g><path d="M 2.328125 -0.25 L 2.328125 0 L 0.4375 0 L 0.4375 -2.671875 L 2.265625 -2.671875 L 2.265625 -2.421875 L 0.71875 -2.421875 L 0.71875 -1.46875 L 2.09375 -1.46875 L 2.09375 -1.234375 L 0.71875 -1.234375 L 0.71875 -0.25 Z M 2.328125 -0.25 "/></g></g></g><g fill="#ffffff" fill-opacity="1"><g transform="translate(32.071925, 3.938437)"><g/></g></g></g></g><g transform="matrix(1, 0, 0, 1, 75, 28)"><g clip-path="url(#f6a18e5e18)"><g clip-path="url(#36bef84a3a)"><g fill="#ffffff" fill-opacity="1"><g transform="translate(0.798859, 3.938437)"><g><path d="M 2.65625 -2.671875 L 1.46875 0 L 1.1875 0 L 0.015625 -2.671875 L 0.3125 -2.671875 L 1.34375 -0.34375 L 2.375 -2.671875 Z M 2.65625 -2.671875 "/></g></g></g></g><g fill="#ffffff" fill-opacity="1"><g transform="translate(3.457953, 3.938437)"><g><path d="M 2.328125 -0.25 L 2.328125 0 L 0.4375 0 L 0.4375 -2.671875 L 2.265625 -2.671875 L 2.265625 -2.421875 L 0.71875 -2.421875 L 0.71875 -1.46875 L 2.09375 -1.46875 L 2.09375 -1.234375 L 0.71875 -1.234375 L 0.71875 -0.25 Z M 2.328125 -0.25 "/></g></g></g><g fill="#ffffff" fill-opacity="1"><g transform="translate(6.006568, 3.938437)"><g><path d="M 2.671875 -2.671875 L 2.671875 0 L 2.4375 0 L 0.71875 -2.171875 L 0.71875 0 L 0.4375 0 L 0.4375 -2.671875 L 0.671875 -2.671875 L 2.390625 -0.5 L 2.390625 -2.671875 Z M 2.671875 -2.671875 "/></g></g></g><g fill="#ffffff" fill-opacity="1"><g transform="translate(9.103763, 3.938437)"><g><path d="M 0.953125 -2.421875 L 0.015625 -2.421875 L 0.015625 -2.671875 L 2.171875 -2.671875 L 2.171875 -2.421875 L 1.234375 -2.421875 L 1.234375 0 L 0.953125 0 Z M 0.953125 -2.421875 "/></g></g></g><g fill="#ffffff" fill-opacity="1"><g transform="translate(11.290467, 3.938437)"><g><path d="M 1.515625 0.015625 C 1.160156 0.015625 0.882812 -0.0820312 0.6875 -0.28125 C 0.5 -0.476562 0.40625 -0.765625 0.40625 -1.140625 L 0.40625 -2.671875 L 0.6875 -2.671875 L 0.6875 -1.15625 C 0.6875 -0.84375 0.753906 -0.609375 0.890625 -0.453125 C 1.035156 -0.304688 1.242188 -0.234375 1.515625 -0.234375 C 1.773438 -0.234375 1.972656 -0.304688 2.109375 -0.453125 C 2.253906 -0.609375 2.328125 -0.84375 2.328125 -1.15625 L 2.328125 -2.671875 L 2.609375 -2.671875 L 2.609375 -1.140625 C 2.609375 -0.765625 2.507812 -0.476562 2.3125 -0.28125 C 2.125 -0.0820312 1.859375 0.015625 1.515625 0.015625 Z M 1.515625 0.015625 "/></g></g></g><g fill="#ffffff" fill-opacity="1"><g transform="translate(14.30766, 3.938437)"><g><path d="M 2.25 0 L 1.640625 -0.859375 C 1.578125 -0.847656 1.507812 -0.84375 1.4375 -0.84375 L 0.71875 -0.84375 L 0.71875 0 L 0.4375 0 L 0.4375 -2.671875 L 1.4375 -2.671875 C 1.769531 -2.671875 2.035156 -2.585938 2.234375 -2.421875 C 2.429688 -2.265625 2.53125 -2.039062 2.53125 -1.75 C 2.53125 -1.539062 2.472656 -1.363281 2.359375 -1.21875 C 2.253906 -1.082031 2.101562 -0.984375 1.90625 -0.921875 L 2.5625 0 Z M 1.421875 -1.09375 C 1.691406 -1.09375 1.894531 -1.148438 2.03125 -1.265625 C 2.164062 -1.378906 2.234375 -1.539062 2.234375 -1.75 C 2.234375 -1.96875 2.164062 -2.132812 2.03125 -2.25 C 1.894531 -2.363281 1.691406 -2.421875 1.421875 -2.421875 L 0.71875 -2.421875 L 0.71875 -1.09375 Z M 1.421875 -1.09375 "/></g></g></g><g fill="#ffffff" fill-opacity="1"><g transform="translate(17.061992, 3.938437)"><g><path d="M 2.328125 -0.25 L 2.328125 0 L 0.4375 0 L 0.4375 -2.671875 L 2.265625 -2.671875 L 2.265625 -2.421875 L 0.71875 -2.421875 L 0.71875 -1.46875 L 2.09375 -1.46875 L 2.09375 -1.234375 L 0.71875 -1.234375 L 0.71875 -0.25 Z M 2.328125 -0.25 "/></g></g></g><g fill="#ffffff" fill-opacity="1"><g transform="translate(19.610607, 3.938437)"><g><path d="M 1.171875 0.015625 C 0.972656 0.015625 0.78125 -0.015625 0.59375 -0.078125 C 0.414062 -0.140625 0.273438 -0.222656 0.171875 -0.328125 L 0.296875 -0.546875 C 0.390625 -0.441406 0.515625 -0.359375 0.671875 -0.296875 C 0.835938 -0.242188 1.003906 -0.21875 1.171875 -0.21875 C 1.410156 -0.21875 1.585938 -0.257812 1.703125 -0.34375 C 1.828125 -0.4375 1.890625 -0.550781 1.890625 -0.6875 C 1.890625 -0.789062 1.851562 -0.875 1.78125 -0.9375 C 1.71875 -1.007812 1.640625 -1.0625 1.546875 -1.09375 C 1.453125 -1.125 1.320312 -1.160156 1.15625 -1.203125 C 0.957031 -1.253906 0.796875 -1.300781 0.671875 -1.34375 C 0.554688 -1.394531 0.457031 -1.46875 0.375 -1.5625 C 0.289062 -1.664062 0.25 -1.796875 0.25 -1.953125 C 0.25 -2.085938 0.28125 -2.210938 0.34375 -2.328125 C 0.414062 -2.441406 0.523438 -2.53125 0.671875 -2.59375 C 0.828125 -2.65625 1.015625 -2.6875 1.234375 -2.6875 C 1.378906 -2.6875 1.523438 -2.664062 1.671875 -2.625 C 1.816406 -2.582031 1.945312 -2.523438 2.0625 -2.453125 L 1.953125 -2.234375 C 1.847656 -2.304688 1.726562 -2.359375 1.59375 -2.390625 C 1.46875 -2.429688 1.347656 -2.453125 1.234375 -2.453125 C 0.992188 -2.453125 0.8125 -2.40625 0.6875 -2.3125 C 0.570312 -2.226562 0.515625 -2.113281 0.515625 -1.96875 C 0.515625 -1.863281 0.546875 -1.773438 0.609375 -1.703125 C 0.679688 -1.640625 0.765625 -1.59375 0.859375 -1.5625 C 0.960938 -1.53125 1.097656 -1.492188 1.265625 -1.453125 C 1.453125 -1.398438 1.601562 -1.347656 1.71875 -1.296875 C 1.84375 -1.253906 1.945312 -1.1875 2.03125 -1.09375 C 2.125 -1 2.171875 -0.867188 2.171875 -0.703125 C 2.171875 -0.566406 2.132812 -0.441406 2.0625 -0.328125 C 1.988281 -0.222656 1.875 -0.140625 1.71875 -0.078125 C 1.570312 -0.015625 1.390625 0.015625 1.171875 0.015625 Z M 1.171875 0.015625 "/></g></g></g></g></g></svg>