<svg xmlns="http://www.w3.org/2000/svg" xmlns:xlink="http://www.w3.org/1999/xlink" width="500" zoomAndPan="magnify" viewBox="0 0 375 374.999991" height="500" preserveAspectRatio="xMidYMid meet" version="1.0"><defs><g/><clipPath id="54cef06043"><path d="M 54.574219 140.558594 L 149 140.558594 L 149 184 L 54.574219 184 Z M 54.574219 140.558594 " clip-rule="nonzero"/></clipPath><clipPath id="2d15ba1774"><path d="M 71 155 L 113 155 L 113 234.308594 L 71 234.308594 Z M 71 155 " clip-rule="nonzero"/></clipPath><clipPath id="8a4bcf59cc"><path d="M 81 160 L 187.324219 160 L 187.324219 234.308594 L 81 234.308594 Z M 81 160 " clip-rule="nonzero"/></clipPath></defs><g clip-path="url(#54cef06043)"><path fill="#c3921c" d="M 109.578125 140.566406 L 54.578125 172.253906 L 54.578125 183.726562 L 109.578125 152.039062 L 148.015625 174.230469 L 148.015625 162.757812 L 109.578125 140.566406 " fill-opacity="1" fill-rule="nonzero"/></g><g clip-path="url(#2d15ba1774)"><path fill="#ffffff" d="M 109.578125 155.582031 L 71.136719 177.773438 L 71.136719 234.445312 L 77.464844 234.445312 L 77.464844 177.773438 L 112.742188 157.40625 L 109.578125 155.582031 " fill-opacity="1" fill-rule="nonzero"/></g><g clip-path="url(#8a4bcf59cc)"><path fill="#ffffff" d="M 104.40625 195.773438 C 104.40625 192.261719 107.261719 189.402344 110.773438 189.402344 C 114.285156 189.402344 117.140625 192.261719 117.140625 195.773438 L 117.140625 230.496094 L 104.40625 229.78125 Z M 121.527344 230.742188 L 121.527344 195.773438 C 121.527344 189.832031 116.714844 185.015625 110.773438 185.015625 C 104.835938 185.015625 100.019531 189.832031 100.019531 195.773438 L 100.019531 229.535156 L 87.304688 228.824219 L 87.304688 180.238281 L 118.660156 162.136719 L 115.851562 160.511719 L 81.679688 180.238281 L 81.679688 234.445312 L 187.507812 234.445312 L 121.527344 230.742188 " fill-opacity="1" fill-rule="nonzero"/></g><g fill="#ffffff" fill-opacity="1"><g transform="translate(136.471827, 204.615822)"><g><path d="M 13.5 -17.203125 L 20.34375 -17.203125 L 14.171875 -10.125 L 20.46875 0 L 13.953125 0 L 10.375 -6.296875 L 7.375 -3.84375 L 7.375 0 L 1.84375 0 L 1.84375 -17.203125 L 7.375 -17.203125 L 7.375 -9.84375 Z M 13.5 -17.203125 "/></g></g></g><g fill="#ffffff" fill-opacity="1"><g transform="translate(157.293527, 204.615822)"><g><path d="M 1.84375 -17.203125 L 16.71875 -17.203125 L 16.71875 -13.078125 L 7.375 -13.078125 L 7.375 -10.703125 L 15.375 -10.703125 L 15.375 -6.75 L 7.375 -6.75 L 7.375 -4.125 L 16.90625 -4.125 L 16.90625 0 L 1.84375 0 Z M 1.84375 -17.203125 "/></g></g></g><g fill="#ffffff" fill-opacity="1"><g transform="translate(175.340664, 204.615822)"><g><path d="M 1.84375 -17.203125 L 7.375 -17.203125 L 7.375 -4.40625 L 16.203125 -4.40625 L 16.203125 0 L 1.84375 0 Z M 1.84375 -17.203125 "/></g></g></g><g fill="#ffffff" fill-opacity="1"><g transform="translate(192.013023, 204.615822)"><g><path d="M 1.84375 -17.203125 L 7.375 -17.203125 L 7.375 -4.40625 L 16.203125 -4.40625 L 16.203125 0 L 1.84375 0 Z M 1.84375 -17.203125 "/></g></g></g><g fill="#ffffff" fill-opacity="1"><g transform="translate(208.685381, 204.615822)"><g><path d="M 12.53125 0 L 7 0 L 7 -6.671875 L 0.171875 -17.203125 L 6.53125 -17.203125 L 9.828125 -11.46875 L 9.921875 -11.46875 L 13.21875 -17.203125 L 19.25 -17.203125 L 12.53125 -6.671875 Z M 12.53125 0 "/></g></g></g><g fill="#ffffff" fill-opacity="1"><g transform="translate(228.132302, 204.615822)"><g><path d="M 13.296875 -17.203125 C 14.160156 -17.203125 14.957031 -17.019531 15.6875 -16.65625 C 16.414062 -16.300781 16.988281 -15.796875 17.40625 -15.140625 C 17.832031 -14.492188 18.046875 -13.769531 18.046875 -12.96875 C 18.046875 -10.851562 17.085938 -9.519531 15.171875 -8.96875 L 15.171875 -8.875 C 17.359375 -8.375 18.453125 -6.941406 18.453125 -4.578125 C 18.453125 -3.671875 18.226562 -2.875 17.78125 -2.1875 C 17.34375 -1.5 16.738281 -0.960938 15.96875 -0.578125 C 15.207031 -0.191406 14.367188 0 13.453125 0 L 1.84375 0 L 1.84375 -17.203125 Z M 7.375 -10.5 L 11.171875 -10.5 C 11.535156 -10.5 11.835938 -10.628906 12.078125 -10.890625 C 12.328125 -11.148438 12.453125 -11.46875 12.453125 -11.84375 L 12.453125 -12.09375 C 12.453125 -12.46875 12.328125 -12.78125 12.078125 -13.03125 C 11.828125 -13.289062 11.523438 -13.421875 11.171875 -13.421875 L 7.375 -13.421875 Z M 7.375 -4 L 11.578125 -4 C 11.941406 -4 12.242188 -4.128906 12.484375 -4.390625 C 12.722656 -4.648438 12.84375 -4.96875 12.84375 -5.34375 L 12.84375 -5.59375 C 12.84375 -5.976562 12.722656 -6.300781 12.484375 -6.5625 C 12.242188 -6.820312 11.941406 -6.953125 11.578125 -6.953125 L 7.375 -6.953125 Z M 7.375 -4 "/></g></g></g><g fill="#ffffff" fill-opacity="1"><g transform="translate(247.579224, 204.615822)"><g><path d="M 1.53125 0 L 1.53125 -4.96875 L 6.828125 -4.96875 L 6.828125 0 Z M 1.53125 0 "/></g></g></g><g fill="#ffffff" fill-opacity="1"><g transform="translate(137.565275, 221.165786)"><g><path d="M 10.09375 -8.40625 L 10.09375 0 L 9.234375 0 L 9.234375 -6.71875 L 5.9375 -1.0625 L 5.515625 -1.0625 L 2.21875 -6.6875 L 2.21875 0 L 1.375 0 L 1.375 -8.40625 L 2.09375 -8.40625 L 5.75 -2.171875 L 9.359375 -8.40625 Z M 10.09375 -8.40625 "/></g></g></g><g fill="#ffffff" fill-opacity="1"><g transform="translate(149.025296, 221.165786)"><g><path d="M 4.75 0.078125 C 3.664062 0.078125 2.816406 -0.234375 2.203125 -0.859375 C 1.597656 -1.484375 1.296875 -2.394531 1.296875 -3.59375 L 1.296875 -8.40625 L 2.1875 -8.40625 L 2.1875 -3.625 C 2.1875 -2.644531 2.40625 -1.914062 2.84375 -1.4375 C 3.28125 -0.957031 3.914062 -0.71875 4.75 -0.71875 C 5.59375 -0.71875 6.234375 -0.957031 6.671875 -1.4375 C 7.109375 -1.914062 7.328125 -2.644531 7.328125 -3.625 L 7.328125 -8.40625 L 8.203125 -8.40625 L 8.203125 -3.59375 C 8.203125 -2.394531 7.898438 -1.484375 7.296875 -0.859375 C 6.691406 -0.234375 5.84375 0.078125 4.75 0.078125 Z M 4.75 0.078125 "/></g></g></g><g fill="#ffffff" fill-opacity="1"><g transform="translate(158.529316, 221.165786)"><g><path d="M 1.375 -8.40625 L 2.25 -8.40625 L 2.25 -0.765625 L 6.953125 -0.765625 L 6.953125 0 L 1.375 0 Z M 1.375 -8.40625 "/></g></g></g><g fill="#ffffff" fill-opacity="1"><g transform="translate(165.597336, 221.165786)"><g><path d="M 3 -7.625 L 0.046875 -7.625 L 0.046875 -8.40625 L 6.84375 -8.40625 L 6.84375 -7.625 L 3.890625 -7.625 L 3.890625 0 L 3 0 Z M 3 -7.625 "/></g></g></g><g fill="#ffffff" fill-opacity="1"><g transform="translate(172.485351, 221.165786)"><g><path d="M 1.375 -8.40625 L 2.25 -8.40625 L 2.25 0 L 1.375 0 Z M 1.375 -8.40625 "/></g></g></g><g fill="#ffffff" fill-opacity="1"><g transform="translate(176.109363, 221.165786)"><g><path d="M 4.515625 -8.40625 C 5.585938 -8.40625 6.425781 -8.144531 7.03125 -7.625 C 7.632812 -7.113281 7.9375 -6.410156 7.9375 -5.515625 C 7.9375 -4.617188 7.632812 -3.914062 7.03125 -3.40625 C 6.425781 -2.90625 5.585938 -2.65625 4.515625 -2.65625 L 2.25 -2.65625 L 2.25 0 L 1.375 0 L 1.375 -8.40625 Z M 4.484375 -3.4375 C 5.316406 -3.4375 5.953125 -3.617188 6.390625 -3.984375 C 6.835938 -4.347656 7.0625 -4.859375 7.0625 -5.515625 C 7.0625 -6.203125 6.835938 -6.722656 6.390625 -7.078125 C 5.953125 -7.441406 5.316406 -7.625 4.484375 -7.625 L 2.25 -7.625 L 2.25 -3.4375 Z M 4.484375 -3.4375 "/></g></g></g><g fill="#ffffff" fill-opacity="1"><g transform="translate(184.725379, 221.165786)"><g><path d="M 4.75 0.078125 C 3.664062 0.078125 2.816406 -0.234375 2.203125 -0.859375 C 1.597656 -1.484375 1.296875 -2.394531 1.296875 -3.59375 L 1.296875 -8.40625 L 2.1875 -8.40625 L 2.1875 -3.625 C 2.1875 -2.644531 2.40625 -1.914062 2.84375 -1.4375 C 3.28125 -0.957031 3.914062 -0.71875 4.75 -0.71875 C 5.59375 -0.71875 6.234375 -0.957031 6.671875 -1.4375 C 7.109375 -1.914062 7.328125 -2.644531 7.328125 -3.625 L 7.328125 -8.40625 L 8.203125 -8.40625 L 8.203125 -3.59375 C 8.203125 -2.394531 7.898438 -1.484375 7.296875 -0.859375 C 6.691406 -0.234375 5.84375 0.078125 4.75 0.078125 Z M 4.75 0.078125 "/></g></g></g><g fill="#ffffff" fill-opacity="1"><g transform="translate(194.229399, 221.165786)"><g><path d="M 7.109375 0 L 5.1875 -2.703125 C 4.96875 -2.671875 4.742188 -2.65625 4.515625 -2.65625 L 2.25 -2.65625 L 2.25 0 L 1.375 0 L 1.375 -8.40625 L 4.515625 -8.40625 C 5.585938 -8.40625 6.425781 -8.144531 7.03125 -7.625 C 7.632812 -7.113281 7.9375 -6.410156 7.9375 -5.515625 C 7.9375 -4.859375 7.769531 -4.304688 7.4375 -3.859375 C 7.113281 -3.410156 6.644531 -3.082031 6.03125 -2.875 L 8.078125 0 Z M 4.484375 -3.421875 C 5.316406 -3.421875 5.953125 -3.601562 6.390625 -3.96875 C 6.835938 -4.34375 7.0625 -4.859375 7.0625 -5.515625 C 7.0625 -6.203125 6.835938 -6.722656 6.390625 -7.078125 C 5.953125 -7.441406 5.316406 -7.625 4.484375 -7.625 L 2.25 -7.625 L 2.25 -3.421875 Z M 4.484375 -3.421875 "/></g></g></g><g fill="#ffffff" fill-opacity="1"><g transform="translate(202.905416, 221.165786)"><g><path d="M 4.515625 -8.40625 C 5.585938 -8.40625 6.425781 -8.144531 7.03125 -7.625 C 7.632812 -7.113281 7.9375 -6.410156 7.9375 -5.515625 C 7.9375 -4.617188 7.632812 -3.914062 7.03125 -3.40625 C 6.425781 -2.90625 5.585938 -2.65625 4.515625 -2.65625 L 2.25 -2.65625 L 2.25 0 L 1.375 0 L 1.375 -8.40625 Z M 4.484375 -3.4375 C 5.316406 -3.4375 5.953125 -3.617188 6.390625 -3.984375 C 6.835938 -4.347656 7.0625 -4.859375 7.0625 -5.515625 C 7.0625 -6.203125 6.835938 -6.722656 6.390625 -7.078125 C 5.953125 -7.441406 5.316406 -7.625 4.484375 -7.625 L 2.25 -7.625 L 2.25 -3.4375 Z M 4.484375 -3.4375 "/></g></g></g><g fill="#ffffff" fill-opacity="1"><g transform="translate(211.521432, 221.165786)"><g><path d="M 5.046875 0.078125 C 4.210938 0.078125 3.457031 -0.109375 2.78125 -0.484375 C 2.101562 -0.859375 1.570312 -1.367188 1.1875 -2.015625 C 0.8125 -2.660156 0.625 -3.390625 0.625 -4.203125 C 0.625 -5.003906 0.8125 -5.726562 1.1875 -6.375 C 1.570312 -7.03125 2.101562 -7.539062 2.78125 -7.90625 C 3.457031 -8.28125 4.210938 -8.46875 5.046875 -8.46875 C 5.867188 -8.46875 6.613281 -8.285156 7.28125 -7.921875 C 7.957031 -7.554688 8.484375 -7.046875 8.859375 -6.390625 C 9.242188 -5.734375 9.4375 -5.003906 9.4375 -4.203125 C 9.4375 -3.390625 9.242188 -2.65625 8.859375 -2 C 8.484375 -1.351562 7.957031 -0.84375 7.28125 -0.46875 C 6.613281 -0.101562 5.867188 0.078125 5.046875 0.078125 Z M 5.046875 -0.71875 C 5.703125 -0.71875 6.296875 -0.867188 6.828125 -1.171875 C 7.367188 -1.472656 7.789062 -1.890625 8.09375 -2.421875 C 8.40625 -2.953125 8.5625 -3.546875 8.5625 -4.203125 C 8.5625 -4.859375 8.40625 -5.453125 8.09375 -5.984375 C 7.789062 -6.515625 7.367188 -6.929688 6.828125 -7.234375 C 6.296875 -7.535156 5.703125 -7.6875 5.046875 -7.6875 C 4.378906 -7.6875 3.773438 -7.535156 3.234375 -7.234375 C 2.691406 -6.929688 2.265625 -6.515625 1.953125 -5.984375 C 1.648438 -5.453125 1.5 -4.859375 1.5 -4.203125 C 1.5 -3.546875 1.648438 -2.953125 1.953125 -2.421875 C 2.265625 -1.890625 2.691406 -1.472656 3.234375 -1.171875 C 3.773438 -0.867188 4.378906 -0.71875 5.046875 -0.71875 Z M 5.046875 -0.71875 "/></g></g></g><g fill="#ffffff" fill-opacity="1"><g transform="translate(221.589451, 221.165786)"><g><path d="M 3.6875 0.078125 C 3.0625 0.078125 2.460938 -0.0195312 1.890625 -0.21875 C 1.316406 -0.425781 0.875 -0.691406 0.5625 -1.015625 L 0.90625 -1.703125 C 1.21875 -1.398438 1.625 -1.15625 2.125 -0.96875 C 2.625 -0.78125 3.144531 -0.6875 3.6875 -0.6875 C 4.4375 -0.6875 5 -0.820312 5.375 -1.09375 C 5.75 -1.375 5.9375 -1.734375 5.9375 -2.171875 C 5.9375 -2.503906 5.832031 -2.769531 5.625 -2.96875 C 5.425781 -3.175781 5.175781 -3.332031 4.875 -3.4375 C 4.582031 -3.539062 4.171875 -3.660156 3.640625 -3.796875 C 3.015625 -3.953125 2.515625 -4.101562 2.140625 -4.25 C 1.765625 -4.394531 1.441406 -4.617188 1.171875 -4.921875 C 0.898438 -5.234375 0.765625 -5.648438 0.765625 -6.171875 C 0.765625 -6.585938 0.875 -6.96875 1.09375 -7.3125 C 1.320312 -7.664062 1.664062 -7.945312 2.125 -8.15625 C 2.59375 -8.363281 3.171875 -8.46875 3.859375 -8.46875 C 4.335938 -8.46875 4.804688 -8.398438 5.265625 -8.265625 C 5.734375 -8.140625 6.132812 -7.960938 6.46875 -7.734375 L 6.171875 -7.015625 C 5.816406 -7.253906 5.4375 -7.429688 5.03125 -7.546875 C 4.632812 -7.660156 4.242188 -7.71875 3.859375 -7.71875 C 3.128906 -7.71875 2.578125 -7.570312 2.203125 -7.28125 C 1.828125 -7 1.640625 -6.632812 1.640625 -6.1875 C 1.640625 -5.851562 1.738281 -5.582031 1.9375 -5.375 C 2.144531 -5.175781 2.40625 -5.019531 2.71875 -4.90625 C 3.03125 -4.800781 3.441406 -4.6875 3.953125 -4.5625 C 4.578125 -4.40625 5.078125 -4.253906 5.453125 -4.109375 C 5.835938 -3.960938 6.160156 -3.738281 6.421875 -3.4375 C 6.679688 -3.132812 6.8125 -2.726562 6.8125 -2.21875 C 6.8125 -1.789062 6.695312 -1.40625 6.46875 -1.0625 C 6.238281 -0.71875 5.890625 -0.441406 5.421875 -0.234375 C 4.953125 -0.0234375 4.375 0.078125 3.6875 0.078125 Z M 3.6875 0.078125 "/></g></g></g><g fill="#ffffff" fill-opacity="1"><g transform="translate(228.969471, 221.165786)"><g><path d="M 7.3125 -0.765625 L 7.3125 0 L 1.375 0 L 1.375 -8.40625 L 7.125 -8.40625 L 7.125 -7.625 L 2.25 -7.625 L 2.25 -4.640625 L 6.59375 -4.640625 L 6.59375 -3.890625 L 2.25 -3.890625 L 2.25 -0.765625 Z M 7.3125 -0.765625 "/></g></g></g><g fill="#ffffff" fill-opacity="1"><g transform="translate(239.288675, 221.165786)"><g><path d="M 8.359375 -8.40625 L 4.625 0 L 3.75 0 L 0.03125 -8.40625 L 1 -8.40625 L 4.21875 -1.109375 L 7.453125 -8.40625 Z M 8.359375 -8.40625 "/></g></g></g><g fill="#ffffff" fill-opacity="1"><g transform="translate(247.664697, 221.165786)"><g><path d="M 7.3125 -0.765625 L 7.3125 0 L 1.375 0 L 1.375 -8.40625 L 7.125 -8.40625 L 7.125 -7.625 L 2.25 -7.625 L 2.25 -4.640625 L 6.59375 -4.640625 L 6.59375 -3.890625 L 2.25 -3.890625 L 2.25 -0.765625 Z M 7.3125 -0.765625 "/></g></g></g><g fill="#ffffff" fill-opacity="1"><g transform="translate(255.692716, 221.165786)"><g><path d="M 8.390625 -8.40625 L 8.390625 0 L 7.65625 0 L 2.25 -6.8125 L 2.25 0 L 1.375 0 L 1.375 -8.40625 L 2.09375 -8.40625 L 7.515625 -1.578125 L 7.515625 -8.40625 Z M 8.390625 -8.40625 "/></g></g></g><g fill="#ffffff" fill-opacity="1"><g transform="translate(265.448734, 221.165786)"><g><path d="M 3 -7.625 L 0.046875 -7.625 L 0.046875 -8.40625 L 6.84375 -8.40625 L 6.84375 -7.625 L 3.890625 -7.625 L 3.890625 0 L 3 0 Z M 3 -7.625 "/></g></g></g><g fill="#ffffff" fill-opacity="1"><g transform="translate(272.33675, 221.165786)"><g><path d="M 4.75 0.078125 C 3.664062 0.078125 2.816406 -0.234375 2.203125 -0.859375 C 1.597656 -1.484375 1.296875 -2.394531 1.296875 -3.59375 L 1.296875 -8.40625 L 2.1875 -8.40625 L 2.1875 -3.625 C 2.1875 -2.644531 2.40625 -1.914062 2.84375 -1.4375 C 3.28125 -0.957031 3.914062 -0.71875 4.75 -0.71875 C 5.59375 -0.71875 6.234375 -0.957031 6.671875 -1.4375 C 7.109375 -1.914062 7.328125 -2.644531 7.328125 -3.625 L 7.328125 -8.40625 L 8.203125 -8.40625 L 8.203125 -3.59375 C 8.203125 -2.394531 7.898438 -1.484375 7.296875 -0.859375 C 6.691406 -0.234375 5.84375 0.078125 4.75 0.078125 Z M 4.75 0.078125 "/></g></g></g><g fill="#ffffff" fill-opacity="1"><g transform="translate(281.84077, 221.165786)"><g><path d="M 7.109375 0 L 5.1875 -2.703125 C 4.96875 -2.671875 4.742188 -2.65625 4.515625 -2.65625 L 2.25 -2.65625 L 2.25 0 L 1.375 0 L 1.375 -8.40625 L 4.515625 -8.40625 C 5.585938 -8.40625 6.425781 -8.144531 7.03125 -7.625 C 7.632812 -7.113281 7.9375 -6.410156 7.9375 -5.515625 C 7.9375 -4.859375 7.769531 -4.304688 7.4375 -3.859375 C 7.113281 -3.410156 6.644531 -3.082031 6.03125 -2.875 L 8.078125 0 Z M 4.484375 -3.421875 C 5.316406 -3.421875 5.953125 -3.601562 6.390625 -3.96875 C 6.835938 -4.34375 7.0625 -4.859375 7.0625 -5.515625 C 7.0625 -6.203125 6.835938 -6.722656 6.390625 -7.078125 C 5.953125 -7.441406 5.316406 -7.625 4.484375 -7.625 L 2.25 -7.625 L 2.25 -3.421875 Z M 4.484375 -3.421875 "/></g></g></g><g fill="#ffffff" fill-opacity="1"><g transform="translate(290.516787, 221.165786)"><g><path d="M 7.3125 -0.765625 L 7.3125 0 L 1.375 0 L 1.375 -8.40625 L 7.125 -8.40625 L 7.125 -7.625 L 2.25 -7.625 L 2.25 -4.640625 L 6.59375 -4.640625 L 6.59375 -3.890625 L 2.25 -3.890625 L 2.25 -0.765625 Z M 7.3125 -0.765625 "/></g></g></g><g fill="#ffffff" fill-opacity="1"><g transform="translate(298.544805, 221.165786)"><g><path d="M 3.6875 0.078125 C 3.0625 0.078125 2.460938 -0.0195312 1.890625 -0.21875 C 1.316406 -0.425781 0.875 -0.691406 0.5625 -1.015625 L 0.90625 -1.703125 C 1.21875 -1.398438 1.625 -1.15625 2.125 -0.96875 C 2.625 -0.78125 3.144531 -0.6875 3.6875 -0.6875 C 4.4375 -0.6875 5 -0.820312 5.375 -1.09375 C 5.75 -1.375 5.9375 -1.734375 5.9375 -2.171875 C 5.9375 -2.503906 5.832031 -2.769531 5.625 -2.96875 C 5.425781 -3.175781 5.175781 -3.332031 4.875 -3.4375 C 4.582031 -3.539062 4.171875 -3.660156 3.640625 -3.796875 C 3.015625 -3.953125 2.515625 -4.101562 2.140625 -4.25 C 1.765625 -4.394531 1.441406 -4.617188 1.171875 -4.921875 C 0.898438 -5.234375 0.765625 -5.648438 0.765625 -6.171875 C 0.765625 -6.585938 0.875 -6.96875 1.09375 -7.3125 C 1.320312 -7.664062 1.664062 -7.945312 2.125 -8.15625 C 2.59375 -8.363281 3.171875 -8.46875 3.859375 -8.46875 C 4.335938 -8.46875 4.804688 -8.398438 5.265625 -8.265625 C 5.734375 -8.140625 6.132812 -7.960938 6.46875 -7.734375 L 6.171875 -7.015625 C 5.816406 -7.253906 5.4375 -7.429688 5.03125 -7.546875 C 4.632812 -7.660156 4.242188 -7.71875 3.859375 -7.71875 C 3.128906 -7.71875 2.578125 -7.570312 2.203125 -7.28125 C 1.828125 -7 1.640625 -6.632812 1.640625 -6.1875 C 1.640625 -5.851562 1.738281 -5.582031 1.9375 -5.375 C 2.144531 -5.175781 2.40625 -5.019531 2.71875 -4.90625 C 3.03125 -4.800781 3.441406 -4.6875 3.953125 -4.5625 C 4.578125 -4.40625 5.078125 -4.253906 5.453125 -4.109375 C 5.835938 -3.960938 6.160156 -3.738281 6.421875 -3.4375 C 6.679688 -3.132812 6.8125 -2.726562 6.8125 -2.21875 C 6.8125 -1.789062 6.695312 -1.40625 6.46875 -1.0625 C 6.238281 -0.71875 5.890625 -0.441406 5.421875 -0.234375 C 4.953125 -0.0234375 4.375 0.078125 3.6875 0.078125 Z M 3.6875 0.078125 "/></g></g></g></svg>